STARTFONT 2.1
COMMENT "20-point bold 3270 font"
COMMENT "Uses nonstandard ordering:"
COMMENT " Page 0: EBCDIC US-International set, CG order"
COMMENT " Page 1: EBCDIC APL/APL2 set, CG order (incomplete)"
COMMENT " Page 2: (first 16 characters only) DEC line-drawing characters from"
COMMENT "  fixed-width X fonts"
COMMENT ""
COMMENT "Modifications Copyright 1995, 2000, 2001, 2002 by Paul Mattes"
COMMENT " Permission to use, copy, modify, and distribute this software and"
COMMENT " its documentation for any purpose and without fee is hereby"
COMMENT " granted, provided that the above copyright notice appear in all"
COMMENT " copies and that both that copyright notice and this permission"
COMMENT " notice appear in supporting documentation."
COMMENT ""
COMMENT $XConsortium: 10x20.bdf,v 1.12 92/04/02 14:25:55 gildea Exp $
COMMENT "$NCDId: @(#)10x20.bdf,v 1.11 1991/07/02 14:50:48 jim Exp $"
COMMENT ""
COMMENT "Copyright 1989-1991 Network Computing Devices, Inc."
COMMENT "NCD is a registered trademark of Network Computing Devices, Inc."
COMMENT ""
COMMENT "Permission to use, copy, modify, and distribute this software and"
COMMENT "its documentation for any purpose and without fee is hereby"
COMMENT "granted, provided that the above copyright notice appear in all"
COMMENT "copies and that both that copyright notice and this permission"
COMMENT "notice appear in supporting documentation, and that the name of"
COMMENT "NCD may not be used in advertising or publicity pertaining to"
COMMENT "distribution of the software without specific, written prior"
COMMENT "permission.  NCD makes no representations about the"
COMMENT "suitability of this software for any purpose.  It is provided ``as"
COMMENT "is'' without express or implied warranty."
COMMENT ""
COMMENT "NCD DISCLAIMS ALL WARRANTIES WITH REGARD TO THIS SOFTWARE,"
COMMENT "INCLUDING ALL IMPLIED WARRANTIES OF MERCHANTABILITY AND FITNESS, IN"
COMMENT "NO EVENT SHALL NCD BE LIABLE FOR ANY SPECIAL, INDIRECT OR"

STARTCHAR null
ENCODING 0
SWIDTH 480 0
DWIDTH 10 0
BBX 10 20 0 -5
BITMAP
0000
0000
0000
0000
0000
0000
0000
0000
0000
0000
0000
0000
0000
0000
0000
0000
0000
0000
0000
0000
ENDCHAR
STARTCHAR nobreakspace
ENCODING 1
SWIDTH 480 0
DWIDTH 10 0
BBX 10 20 0 -5
BITMAP
0000
0000
0000
0000
0000
0000
0000
0000
0000
0000
0000
0000
0000
0000
0000
0000
0000
0000
0000
0000
ENDCHAR
STARTCHAR ff
ENCODING 2
SWIDTH 480 0
DWIDTH 10 0
BBX 10 20 0 -5
BITMAP
0000
0000
0000
0000
0000
0000
0000
0000
0000
0000
0000
0000
0000
0000
0000
0000
0000
0000
0000
0000
ENDCHAR
STARTCHAR cr
ENCODING 3
SWIDTH 480 0
DWIDTH 10 0
BBX 10 20 0 -5
BITMAP
0000
0000
0000
0000
0000
0000
0000
0000
0000
0000
0000
0000
0000
0000
0000
0000
0000
0000
0000
0000
ENDCHAR
STARTCHAR nl
ENCODING 4
SWIDTH 480 0
DWIDTH 10 0
BBX 10 20 0 -5
BITMAP
0000
0000
0000
0000
0000
0000
0000
0000
0000
0000
0000
0000
0000
0000
0000
0000
0000
0000
0000
0000
ENDCHAR
STARTCHAR em
ENCODING 5
SWIDTH 480 0
DWIDTH 10 0
BBX 10 20 0 -5
BITMAP
0000
0000
0000
0000
0000
0000
0000
0000
0000
0000
0000
0000
0000
0000
0000
0000
0000
0000
0000
0000
ENDCHAR
STARTCHAR eightones
ENCODING 6
SWIDTH 480 0
DWIDTH 10 0
BBX 10 20 0 -5
BITMAP
0000
0000
0000
0000
0000
1E00
3F00
7F80
7F80
7F80
7F80
3F00
1E00
0000
0000
0000
0000
0000
0000
0000
ENDCHAR
STARTCHAR hyphen
ENCODING 7
SWIDTH 480 0
DWIDTH 10 0
BBX 10 20 0 -5
BITMAP
0000
0000
0000
0000
0000
0000
0000
3F80
3F80
0000
0000
0000
0000
0000
0000
0000
0000
0000
0000
0000
ENDCHAR
STARTCHAR greater
ENCODING 8
SWIDTH 480 0
DWIDTH 10 0
BBX 10 20 0 -5
BITMAP
0000
0000
3000
3800
1C00
0E00
0700
0380
01C0
0380
0700
0E00
1C00
3800
3000
0000
0000
0000
0000
0000
ENDCHAR
STARTCHAR less
ENCODING 9
SWIDTH 480 0
DWIDTH 10 0
BBX 10 20 0 -5
BITMAP
0000
0000
0180
0380
0700
0E00
1C00
3800
7000
3800
1C00
0E00
0700
0380
0180
0000
0000
0000
0000
0000
ENDCHAR
STARTCHAR bracketleft
ENCODING 10
SWIDTH 480 0
DWIDTH 10 0
BBX 10 20 0 -5
BITMAP
0000
0000
3F80
3800
3800
3800
3800
3800
3800
3800
3800
3800
3800
3800
3F80
0000
0000
0000
0000
0000
ENDCHAR
STARTCHAR bracketright
ENCODING 11
SWIDTH 480 0
DWIDTH 10 0
BBX 10 20 0 -5
BITMAP
0000
0000
3F80
0380
0380
0380
0380
0380
0380
0380
0380
0380
0380
0380
3F80
0000
0000
0000
0000
0000
ENDCHAR
STARTCHAR parenright
ENCODING 12
SWIDTH 480 0
DWIDTH 10 0
BBX 10 20 0 -5
BITMAP
0000
0000
3800
1C00
0E00
0E00
0700
0700
0700
0700
0700
0E00
0E00
1C00
3800
0000
0000
0000
0000
0000
ENDCHAR
STARTCHAR parenleft
ENCODING 13
SWIDTH 480 0
DWIDTH 10 0
BBX 10 20 0 -5
BITMAP
0000
0000
0380
0700
0E00
0E00
1C00
1C00
1C00
1C00
1C00
0E00
0E00
0700
0380
0000
0000
0000
0000
0000
ENDCHAR
STARTCHAR braceright
ENCODING 14
SWIDTH 480 0
DWIDTH 10 0
BBX 10 20 0 -5
BITMAP
0000
0000
7C00
0E00
0E00
0E00
0E00
0E00
07C0
0E00
0E00
0E00
0E00
0E00
7C00
0000
0000
0000
0000
0000
ENDCHAR
STARTCHAR braceleft
ENCODING 15
SWIDTH 480 0
DWIDTH 10 0
BBX 10 20 0 -5
BITMAP
0000
0000
07C0
0E00
0E00
0E00
0E00
0E00
7C00
0E00
0E00
0E00
0E00
0E00
07C0
0000
0000
0000
0000
0000
ENDCHAR
STARTCHAR space
ENCODING 16
SWIDTH 480 0
DWIDTH 10 0
BBX 10 20 0 -5
BITMAP
0000
0000
0000
0000
0000
0000
0000
0000
0000
0000
0000
0000
0000
0000
0000
0000
0000
0000
0000
0000
ENDCHAR
STARTCHAR equal
ENCODING 17
SWIDTH 480 0
DWIDTH 10 0
BBX 10 20 0 -5
BITMAP
0000
0000
0000
0000
0000
0000
7FC0
0000
0000
0000
0000
7FC0
0000
0000
0000
0000
0000
0000
0000
0000
ENDCHAR
STARTCHAR apostrophe
ENCODING 18
SWIDTH 480 0
DWIDTH 10 0
BBX 10 20 0 -5
BITMAP
0000
0000
0F80
0F00
1C00
0000
0000
0000
0000
0000
0000
0000
0000
0000
0000
0000
0000
0000
0000
0000
ENDCHAR
STARTCHAR quotedbl
ENCODING 19
SWIDTH 480 0
DWIDTH 10 0
BBX 10 20 0 -5
BITMAP
0000
0000
3B80
3B80
3B80
1B00
0000
0000
0000
0000
0000
0000
0000
0000
0000
0000
0000
0000
0000
0000
ENDCHAR
STARTCHAR slash
ENCODING 20
SWIDTH 480 0
DWIDTH 10 0
BBX 10 20 0 -5
BITMAP
0000
0000
0000
01C0
01C0
0380
0380
0700
0700
0E00
0E00
1C00
1C00
3800
3800
0000
0000
0000
0000
0000
ENDCHAR
STARTCHAR backslash
ENCODING 21
SWIDTH 480 0
DWIDTH 10 0
BBX 10 20 0 -5
BITMAP
0000
0000
0000
3800
3800
1C00
1C00
0E00
0E00
0700
0700
0380
0380
01C0
01C0
0000
0000
0000
0000
0000
ENDCHAR
STARTCHAR bar
ENCODING 22
SWIDTH 480 0
DWIDTH 10 0
BBX 10 20 0 -5
BITMAP
0000
0000
0E00
0E00
0E00
0E00
0E00
0E00
0E00
0E00
0E00
0E00
0E00
0E00
0E00
0000
0000
0000
0000
0000
ENDCHAR
STARTCHAR brokenbar
ENCODING 23
SWIDTH 480 0
DWIDTH 10 0
BBX 10 20 0 -5
BITMAP
0000
0000
0E00
0E00
0E00
0E00
0E00
0000
0000
0000
0E00
0E00
0E00
0E00
0E00
0000
0000
0000
0000
0000
ENDCHAR
STARTCHAR question
ENCODING 24
SWIDTH 480 0
DWIDTH 10 0
BBX 10 20 0 -5
BITMAP
0000
0000
1F00
3B80
71C0
71C0
71C0
0380
0700
0E00
0E00
0E00
0000
0E00
0E00
0000
0000
0000
0000
0000
ENDCHAR
STARTCHAR exclam
ENCODING 25
SWIDTH 480 0
DWIDTH 10 0
BBX 10 20 0 -5
BITMAP
0000
0000
0E00
0E00
0E00
0E00
0E00
0E00
0E00
0E00
0E00
0E00
0000
0E00
0E00
0000
0000
0000
0000
0000
ENDCHAR
STARTCHAR dollar
ENCODING 26
SWIDTH 480 0
DWIDTH 10 0
BBX 10 20 0 -5
BITMAP
0000
0000
0E00
3F80
7FC0
7E00
7E00
7E00
3F80
0FC0
0FC0
0FC0
7FC0
3F80
0E00
0000
0000
0000
0000
0000
ENDCHAR
STARTCHAR cent
ENCODING 27
SWIDTH 480 0
DWIDTH 10 0
BBX 10 20 0 -5
BITMAP
0000
0000
0000
0E00
0E00
1F00
3B80
7180
7000
7000
7180
3B80
1F00
0E00
0E00
0000
0000
0000
0000
0000
ENDCHAR
STARTCHAR sterling
ENCODING 28
SWIDTH 480 0
DWIDTH 10 0
BBX 10 20 0 -5
BITMAP
0000
0000
0000
0F80
1DC0
1DC0
1C00
1C00
7F00
1C00
1C00
1C00
7E00
7FC0
7BC0
0000
0000
0000
0000
0000
ENDCHAR
STARTCHAR yen
ENCODING 29
SWIDTH 480 0
DWIDTH 10 0
BBX 10 20 0 -5
BITMAP
0000
0000
0000
0000
60C0
71C0
3B80
1F00
3F80
0E00
3F80
0E00
0E00
0E00
0E00
0000
0000
0000
0000
0000
ENDCHAR
STARTCHAR paragraph
ENCODING 30
SWIDTH 480 0
DWIDTH 10 0
BBX 10 20 0 -5
BITMAP
0000
0000
1FC0
3FC0
7FC0
7FC0
7FC0
3FC0
1FC0
07C0
07C0
07C0
07C0
07C0
07C0
0000
0000
0000
0000
0000
ENDCHAR
STARTCHAR euro
ENCODING 31
SWIDTH 480 0
DWIDTH 10 0
BBX 10 20 0 -5
BITMAP
0000
0000
1E00
3F00
6180
6000
FF00
FF00
6000
FE00
FE00
6000
6180
3F00
1E00
0000
0000
0000
0000
0000
ENDCHAR
STARTCHAR 0
ENCODING 32
SWIDTH 480 0
DWIDTH 10 0
BBX 10 20 0 -5
BITMAP
0000
0000
0E00
1F00
3B80
3B80
71C0
71C0
71C0
71C0
71C0
3B80
3B80
1F00
0E00
0000
0000
0000
0000
0000
ENDCHAR
STARTCHAR 1
ENCODING 33
SWIDTH 480 0
DWIDTH 10 0
BBX 10 20 0 -5
BITMAP
0000
0000
0E00
1E00
3E00
7E00
0E00
0E00
0E00
0E00
0E00
0E00
0E00
0E00
7FC0
0000
0000
0000
0000
0000
ENDCHAR
STARTCHAR 2
ENCODING 34
SWIDTH 480 0
DWIDTH 10 0
BBX 10 20 0 -5
BITMAP
0000
0000
1F00
3B80
71C0
71C0
01C0
01C0
0380
0F00
1C00
3800
7000
7000
7FC0
0000
0000
0000
0000
0000
ENDCHAR
STARTCHAR 3
ENCODING 35
SWIDTH 480 0
DWIDTH 10 0
BBX 10 20 0 -5
BITMAP
0000
0000
1F00
3B80
71C0
71C0
01C0
0380
0F00
0380
01C0
71C0
71C0
3B80
1F00
0000
0000
0000
0000
0000
ENDCHAR
STARTCHAR 4
ENCODING 36
SWIDTH 480 0
DWIDTH 10 0
BBX 10 20 0 -5
BITMAP
0000
0000
0180
0380
0780
0F80
1F80
3B80
7380
7380
7FC0
0380
0380
0380
0380
0000
0000
0000
0000
0000
ENDCHAR
STARTCHAR 5
ENCODING 37
SWIDTH 480 0
DWIDTH 10 0
BBX 10 20 0 -5
BITMAP
0000
0000
7FC0
7000
7000
7000
7000
7F00
7B80
01C0
01C0
01C0
71C0
3B80
1F00
0000
0000
0000
0000
0000
ENDCHAR
STARTCHAR 6
ENCODING 38
SWIDTH 480 0
DWIDTH 10 0
BBX 10 20 0 -5
BITMAP
0000
0000
1F00
3B80
7180
7000
7000
7F00
7B80
71C0
71C0
71C0
71C0
3B80
1F00
0000
0000
0000
0000
0000
ENDCHAR
STARTCHAR 7
ENCODING 39
SWIDTH 480 0
DWIDTH 10 0
BBX 10 20 0 -5
BITMAP
0000
0000
7FC0
01C0
01C0
0380
0380
0700
0700
0E00
0E00
1C00
1C00
3800
3800
0000
0000
0000
0000
0000
ENDCHAR
STARTCHAR 8
ENCODING 40
SWIDTH 480 0
DWIDTH 10 0
BBX 10 20 0 -5
BITMAP
0000
0000
1F00
3B80
71C0
71C0
71C0
3B80
1F00
3B80
71C0
71C0
71C0
3B80
1F00
0000
0000
0000
0000
0000
ENDCHAR
STARTCHAR 9
ENCODING 41
SWIDTH 480 0
DWIDTH 10 0
BBX 10 20 0 -5
BITMAP
0000
0000
1F00
3B80
71C0
71C0
71C0
71C0
3BC0
1FC0
01C0
01C0
31C0
3B80
1F00
0000
0000
0000
0000
0000
ENDCHAR
STARTCHAR ssharp
ENCODING 42
SWIDTH 480 0
DWIDTH 10 0
BBX 10 20 0 -5
BITMAP
0000
0000
0000
1E00
3F00
7B80
7380
7380
7700
7E00
7700
7380
7180
7380
7F00
0000
0000
0000
0000
0000
ENDCHAR
STARTCHAR section
ENCODING 43
SWIDTH 480 0
DWIDTH 10 0
BBX 10 20 0 -5
BITMAP
0000
0000
3F00
7380
7000
7800
7C00
6E00
7700
3B80
1D80
0F80
0380
7380
3F00
0000
0000
0000
0000
0000
ENDCHAR
STARTCHAR numbersign
ENCODING 44
SWIDTH 480 0
DWIDTH 10 0
BBX 10 20 0 -5
BITMAP
0000
0000
0000
0FC0
0FC0
0FC0
3FC0
1F80
1F80
1F80
7FC0
3F00
3F00
3F00
0000
0000
0000
0000
0000
0000
ENDCHAR
STARTCHAR at
ENCODING 45
SWIDTH 480 0
DWIDTH 10 0
BBX 10 20 0 -5
BITMAP
0000
0000
1F00
3B80
71C0
77C0
7FC0
7FC0
7FC0
7FC0
7F80
7700
7000
39C0
1F80
0000
0000
0000
0000
0000
ENDCHAR
STARTCHAR percent
ENCODING 46
SWIDTH 480 0
DWIDTH 10 0
BBX 10 20 0 -5
BITMAP
0000
0000
0000
3DC0
7FC0
7F80
3F80
0700
0700
0E00
0E00
1FC0
1FC0
3FC0
3BC0
0000
0000
0000
0000
0000
ENDCHAR
STARTCHAR underscore
ENCODING 47
SWIDTH 480 0
DWIDTH 10 0
BBX 10 20 0 -5
BITMAP
0000
0000
0000
0000
0000
0000
0000
0000
0000
0000
0000
0000
0000
0000
0000
7FC0
0000
0000
0000
0000
ENDCHAR
STARTCHAR ampersand
ENCODING 48
SWIDTH 480 0
DWIDTH 10 0
BBX 10 20 0 -5
BITMAP
0000
0000
1E00
3F00
3F00
3F00
3E00
1C00
3C00
7E00
77C0
73C0
7380
7FC0
3EC0
0000
0000
0000
0000
0000
ENDCHAR
STARTCHAR minus
ENCODING 49
SWIDTH 480 0
DWIDTH 10 0
BBX 10 20 0 -5
BITMAP
0000
0000
0000
0000
0000
0000
0000
0000
7FC0
0000
0000
0000
0000
0000
0000
0000
0000
0000
0000
0000
ENDCHAR
STARTCHAR period
ENCODING 50
SWIDTH 480 0
DWIDTH 10 0
BBX 10 20 0 -5
BITMAP
0000
0000
0000
0000
0000
0000
0000
0000
0000
0000
0000
0000
0F00
0F00
0F00
0000
0000
0000
0000
0000
ENDCHAR
STARTCHAR comma
ENCODING 51
SWIDTH 480 0
DWIDTH 10 0
BBX 10 20 0 -5
BITMAP
0000
0000
0000
0000
0000
0000
0000
0000
0000
0000
0000
0000
0000
0F00
0F00
1C00
0000
0000
0000
0000
ENDCHAR
STARTCHAR colon
ENCODING 52
SWIDTH 480 0
DWIDTH 10 0
BBX 10 20 0 -5
BITMAP
0000
0000
0000
0000
0000
0F00
0F00
0000
0000
0000
0000
0F00
0F00
0000
0000
0000
0000
0000
0000
0000
ENDCHAR
STARTCHAR plus
ENCODING 53
SWIDTH 480 0
DWIDTH 10 0
BBX 10 20 0 -5
BITMAP
0000
0000
0000
0000
0000
0E00
0E00
0E00
7FC0
0E00
0E00
0E00
0000
0000
0000
0000
0000
0000
0000
0000
ENDCHAR
STARTCHAR notsign
ENCODING 54
SWIDTH 480 0
DWIDTH 10 0
BBX 10 20 0 -5
BITMAP
0000
0000
0000
0000
0000
0000
0000
7FC0
7FC0
01C0
01C0
0000
0000
0000
0000
0000
0000
0000
0000
0000
ENDCHAR
STARTCHAR macron
ENCODING 55
SWIDTH 480 0
DWIDTH 10 0
BBX 10 20 0 -5
BITMAP
0000
0000
0000
7F80
7F80
0000
0000
0000
0000
0000
0000
0000
0000
0000
0000
0000
0000
0000
0000
0000
ENDCHAR
STARTCHAR degree
ENCODING 56
SWIDTH 480 0
DWIDTH 10 0
BBX 10 20 0 -5
BITMAP
0000
0000
0E00
1F00
3B80
3B80
1F00
0E00
0000
0000
0000
0000
0000
0000
0000
0000
0000
0000
0000
0000
ENDCHAR
STARTCHAR periodcentered
ENCODING 57
SWIDTH 480 0
DWIDTH 10 0
BBX 10 20 0 -5
BITMAP
0000
0000
0000
0000
0000
0000
0000
0F00
0F00
0F00
0000
0000
0000
0000
0000
0000
0000
0000
0000
0000
ENDCHAR
STARTCHAR asciicircum
ENCODING 58
SWIDTH 480 0
DWIDTH 10 0
BBX 10 20 0 -5
BITMAP
0000
0000
0E00
1F00
3B80
71C0
0000
0000
0000
0000
0000
0000
0000
0000
0000
0000
0000
0000
0000
0000
ENDCHAR
STARTCHAR asciitilde
ENCODING 59
SWIDTH 480 0
DWIDTH 10 0
BBX 10 20 0 -5
BITMAP
0000
0000
3DC0
7FC0
7780
0000
0000
0000
0000
0000
0000
0000
0000
0000
0000
0000
0000
0000
0000
0000
ENDCHAR
STARTCHAR diaeresis
ENCODING 60
SWIDTH 480 0
DWIDTH 10 0
BBX 10 20 0 -5
BITMAP
0000
0000
3B80
3B80
0000
0000
0000
0000
0000
0000
0000
0000
0000
0000
0000
0000
0000
0000
0000
0000
ENDCHAR
STARTCHAR grave
ENCODING 61
SWIDTH 480 0
DWIDTH 10 0
BBX 10 20 0 -5
BITMAP
0000
0000
3E00
1E00
0700
0000
0000
0000
0000
0000
0000
0000
0000
0000
0000
0000
0000
0000
0000
0000
ENDCHAR
STARTCHAR acute
ENCODING 62
SWIDTH 480 0
DWIDTH 10 0
BBX 10 20 0 -5
BITMAP
0000
0000
0700
0E00
1C00
0000
0000
0000
0000
0000
0000
0000
0000
0000
0000
0000
0000
0000
0000
0000
ENDCHAR
STARTCHAR cedilla
ENCODING 63
SWIDTH 480 0
DWIDTH 10 0
BBX 10 20 0 -5
BITMAP
0000
0000
0000
0000
0000
0000
0000
0000
0000
0000
0000
0000
0000
0000
0000
0E00
0600
1B00
0E00
0000
ENDCHAR
STARTCHAR agrave
ENCODING 64
SWIDTH 480 0
DWIDTH 10 0
BBX 10 20 0 -5
BITMAP
0000
0000
3800
1C00
0E00
0000
0000
3F80
71C0
01C0
3FC0
71C0
71C0
71C0
3FC0
0000
0000
0000
0000
0000
ENDCHAR
STARTCHAR egrave
ENCODING 65
SWIDTH 480 0
DWIDTH 10 0
BBX 10 20 0 -5
BITMAP
0000
0000
3800
1C00
0E00
0000
0000
1F00
3B80
71C0
7FC0
7000
7000
39C0
1F80
0000
0000
0000
0000
0000
ENDCHAR
STARTCHAR igrave
ENCODING 66
SWIDTH 480 0
DWIDTH 10 0
BBX 10 20 0 -5
BITMAP
0000
0000
3800
1C00
0E00
0000
0000
3E00
0E00
0E00
0E00
0E00
0E00
0E00
7FC0
0000
0000
0000
0000
0000
ENDCHAR
STARTCHAR ograve
ENCODING 67
SWIDTH 480 0
DWIDTH 10 0
BBX 10 20 0 -5
BITMAP
0000
0000
3800
1C00
0E00
0000
0000
1F00
3B80
71C0
71C0
71C0
71C0
3B80
1F00
0000
0000
0000
0000
0000
ENDCHAR
STARTCHAR ugrave
ENCODING 68
SWIDTH 480 0
DWIDTH 10 0
BBX 10 20 0 -5
BITMAP
0000
0000
3800
1C00
0E00
0000
0000
71C0
71C0
71C0
71C0
71C0
71C0
3BC0
1FC0
0000
0000
0000
0000
0000
ENDCHAR
STARTCHAR atilde
ENCODING 69
SWIDTH 480 0
DWIDTH 10 0
BBX 10 20 0 -5
BITMAP
0000
0000
1D80
3F80
3700
0000
0000
3F80
71C0
01C0
3FC0
71C0
71C0
71C0
3FC0
0000
0000
0000
0000
0000
ENDCHAR
STARTCHAR otilde
ENCODING 70
SWIDTH 480 0
DWIDTH 10 0
BBX 10 20 0 -5
BITMAP
0000
0000
1D80
3F80
3700
0000
0000
1F00
3B80
71C0
71C0
71C0
71C0
3B80
1F00
0000
0000
0000
0000
0000
ENDCHAR
STARTCHAR ydiaeresis
ENCODING 71
SWIDTH 480 0
DWIDTH 10 0
BBX 10 20 0 -5
BITMAP
0000
0000
3B80
3B80
0000
0000
0000
0000
71C0
71C0
71C0
71C0
71C0
3BC0
1FC0
01C0
71C0
3B80
1F00
0000
ENDCHAR
STARTCHAR Yacute
ENCODING 72
SWIDTH 480 0
DWIDTH 10 0
BBX 10 20 0 -5
BITMAP
0000
0000
0380
0700
0E00
0000
60C0
71C0
3B80
1F00
0E00
0E00
0E00
0E00
0E00
0000
0000
0000
0000
0000
ENDCHAR
STARTCHAR yacute
ENCODING 73
SWIDTH 480 0
DWIDTH 10 0
BBX 10 20 0 -5
BITMAP
0000
0000
0700
0E00
1C00
0000
0000
0000
71C0
71C0
71C0
71C0
71C0
3BC0
1FC0
01C0
71C0
3B80
1F00
0000
ENDCHAR
STARTCHAR eacute
ENCODING 74
SWIDTH 480 0
DWIDTH 10 0
BBX 10 20 0 -5
BITMAP
0000
0000
0700
0E00
1C00
0000
0000
1F00
3B80
71C0
7FC0
7000
7000
39C0
1F80
0000
0000
0000
0000
0000
ENDCHAR
STARTCHAR onequarter
ENCODING 75
SWIDTH 480 0
DWIDTH 10 0
BBX 10 20 0 -5
BITMAP
0000
0000
3000
7000
30C0
3180
7B00
0600
0D80
1B80
3780
6F80
0180
0180
0000
0000
0000
0000
0000
0000
ENDCHAR
STARTCHAR onehalf
ENCODING 76
SWIDTH 480 0
DWIDTH 10 0
BBX 10 20 0 -5
BITMAP
0000
0000
3000
7000
30C0
3180
7B00
0600
0F80
1EC0
30C0
6180
0300
07C0
0000
0000
0000
0000
0000
0000
ENDCHAR
STARTCHAR threequarters
ENCODING 77
SWIDTH 480 0
DWIDTH 10 0
BBX 10 20 0 -5
BITMAP
0000
0000
7800
0C00
38C0
0D80
7B00
0600
0D80
1B80
3780
6FC0
0180
0180
0000
0000
0000
0000
0000
0000
ENDCHAR
STARTCHAR udiaeresis
ENCODING 78
SWIDTH 480 0
DWIDTH 10 0
BBX 10 20 0 -5
BITMAP
0000
0000
3B80
3B80
0000
0000
0000
71C0
71C0
71C0
71C0
71C0
71C0
3BC0
1FC0
0000
0000
0000
0000
0000
ENDCHAR
STARTCHAR ccedilla
ENCODING 79
SWIDTH 480 0
DWIDTH 10 0
BBX 10 20 0 -5
BITMAP
0000
0000
0000
0000
0000
0000
0000
1F80
39C0
7000
7000
7000
7000
39C0
1F80
0E00
0600
1B00
0E00
0000
ENDCHAR
STARTCHAR adiaeresis
ENCODING 80
SWIDTH 480 0
DWIDTH 10 0
BBX 10 20 0 -5
BITMAP
0000
0000
3B80
3B80
0000
0000
0000
3F80
71C0
01C0
3FC0
71C0
71C0
71C0
3FC0
0000
0000
0000
0000
0000
ENDCHAR
STARTCHAR ediaeresis
ENCODING 81
SWIDTH 480 0
DWIDTH 10 0
BBX 10 20 0 -5
BITMAP
0000
0000
3B80
3B80
0000
0000
0000
1F00
3B80
71C0
7FC0
7000
7000
39C0
1F80
0000
0000
0000
0000
0000
ENDCHAR
STARTCHAR idiaeresis
ENCODING 82
SWIDTH 480 0
DWIDTH 10 0
BBX 10 20 0 -5
BITMAP
0000
0000
3B80
3B80
0000
0000
0000
3E00
0E00
0E00
0E00
0E00
0E00
0E00
7FC0
0000
0000
0000
0000
0000
ENDCHAR
STARTCHAR odiaeresis
ENCODING 83
SWIDTH 480 0
DWIDTH 10 0
BBX 10 20 0 -5
BITMAP
0000
0000
3B80
3B80
0000
0000
0000
1F00
3B80
71C0
71C0
71C0
71C0
3B80
1F00
0000
0000
0000
0000
0000
ENDCHAR
STARTCHAR mu
ENCODING 84
SWIDTH 480 0
DWIDTH 10 0
BBX 10 20 0 -5
BITMAP
0000
0000
0000
0000
0000
0000
0000
0000
7380
7380
7380
7380
7380
7F80
7F80
7000
7000
7000
0000
0000
ENDCHAR
STARTCHAR acircumflex
ENCODING 85
SWIDTH 480 0
DWIDTH 10 0
BBX 10 20 0 -5
BITMAP
0000
0000
0E00
1F00
3B80
0000
0000
3F80
71C0
01C0
3FC0
71C0
71C0
71C0
3FC0
0000
0000
0000
0000
0000
ENDCHAR
STARTCHAR ecircumflex
ENCODING 86
SWIDTH 480 0
DWIDTH 10 0
BBX 10 20 0 -5
BITMAP
0000
0000
0E00
1F00
3B80
0000
0000
1F00
3B80
71C0
7FC0
7000
7000
39C0
1F80
0000
0000
0000
0000
0000
ENDCHAR
STARTCHAR icircumflex
ENCODING 87
SWIDTH 480 0
DWIDTH 10 0
BBX 10 20 0 -5
BITMAP
0000
0000
0E00
1F00
3B80
0000
0000
3E00
0E00
0E00
0E00
0E00
0E00
0E00
7FC0
0000
0000
0000
0000
0000
ENDCHAR
STARTCHAR ocircumflex
ENCODING 88
SWIDTH 480 0
DWIDTH 10 0
BBX 10 20 0 -5
BITMAP
0000
0000
0E00
1F00
3B80
0000
0000
1F00
3B80
71C0
71C0
71C0
71C0
3B80
1F00
0000
0000
0000
0000
0000
ENDCHAR
STARTCHAR ucircumflex
ENCODING 89
SWIDTH 480 0
DWIDTH 10 0
BBX 10 20 0 -5
BITMAP
0000
0000
0E00
1F00
3B80
0000
0000
71C0
71C0
71C0
71C0
71C0
71C0
3BC0
1FC0
0000
0000
0000
0000
0000
ENDCHAR
STARTCHAR aacute
ENCODING 90
SWIDTH 480 0
DWIDTH 10 0
BBX 10 20 0 -5
BITMAP
0000
0000
0700
0E00
1C00
0000
0000
3F80
71C0
01C0
3FC0
71C0
71C0
71C0
3FC0
0000
0000
0000
0000
0000
ENDCHAR
STARTCHAR multiply
ENCODING 91
SWIDTH 480 0
DWIDTH 10 0
BBX 10 20 0 -5
BITMAP
0000
0000
0000
0000
0000
0000
0000
30C0
39C0
1F80
0F00
0F00
1F80
39C0
30C0
0000
0000
0000
0000
0000
ENDCHAR
STARTCHAR iacute
ENCODING 92
SWIDTH 480 0
DWIDTH 10 0
BBX 10 20 0 -5
BITMAP
0000
0000
0700
0E00
1C00
0000
0000
3E00
0E00
0E00
0E00
0E00
0E00
0E00
7FC0
0000
0000
0000
0000
0000
ENDCHAR
STARTCHAR oacute
ENCODING 93
SWIDTH 480 0
DWIDTH 10 0
BBX 10 20 0 -5
BITMAP
0000
0000
0700
0E00
1C00
0000
0000
1F00
3B80
71C0
71C0
71C0
71C0
3B80
1F00
0000
0000
0000
0000
0000
ENDCHAR
STARTCHAR uacute
ENCODING 94
SWIDTH 480 0
DWIDTH 10 0
BBX 10 20 0 -5
BITMAP
0000
0000
0700
0E00
1C00
0000
0000
71C0
71C0
71C0
71C0
71C0
71C0
3BC0
1FC0
0000
0000
0000
0000
0000
ENDCHAR
STARTCHAR ntilde
ENCODING 95
SWIDTH 480 0
DWIDTH 10 0
BBX 10 20 0 -5
BITMAP
0000
0000
1D80
3F80
3700
0000
0000
7F00
7B80
71C0
71C0
71C0
71C0
71C0
71C0
0000
0000
0000
0000
0000
ENDCHAR
STARTCHAR Agrave
ENCODING 96
SWIDTH 480 0
DWIDTH 10 0
BBX 10 20 0 -5
BITMAP
0000
0000
3800
1C00
0E00
0000
0E00
1F00
3B80
71C0
71C0
7FC0
71C0
71C0
71C0
0000
0000
0000
0000
0000
ENDCHAR
STARTCHAR Egrave
ENCODING 97
SWIDTH 480 0
DWIDTH 10 0
BBX 10 20 0 -5
BITMAP
0000
0000
3800
1C00
0E00
0000
7FC0
7000
7000
7000
7F00
7000
7000
7000
7FC0
0000
0000
0000
0000
0000
ENDCHAR
STARTCHAR Igrave
ENCODING 98
SWIDTH 480 0
DWIDTH 10 0
BBX 10 20 0 -5
BITMAP
0000
0000
3800
1C00
0E00
0000
3F80
0E00
0E00
0E00
0E00
0E00
0E00
0E00
3F80
0000
0000
0000
0000
0000
ENDCHAR
STARTCHAR Ograve
ENCODING 99
SWIDTH 480 0
DWIDTH 10 0
BBX 10 20 0 -5
BITMAP
0000
0000
3800
1C00
0E00
0000
1F00
3B80
71C0
71C0
71C0
71C0
71C0
3B80
1F00
0000
0000
0000
0000
0000
ENDCHAR
STARTCHAR Ugrave
ENCODING 100
SWIDTH 480 0
DWIDTH 10 0
BBX 10 20 0 -5
BITMAP
0000
0000
3800
1C00
0E00
0000
71C0
71C0
71C0
71C0
71C0
71C0
71C0
3B80
1F00
0000
0000
0000
0000
0000
ENDCHAR
STARTCHAR Atilde
ENCODING 101
SWIDTH 480 0
DWIDTH 10 0
BBX 10 20 0 -5
BITMAP
0000
0000
1D80
3F80
3700
0000
0E00
1F00
3B80
71C0
71C0
7FC0
71C0
71C0
71C0
0000
0000
0000
0000
0000
ENDCHAR
STARTCHAR Otilde
ENCODING 102
SWIDTH 480 0
DWIDTH 10 0
BBX 10 20 0 -5
BITMAP
0000
0000
1D80
3F80
3700
0000
1F00
3B80
71C0
71C0
71C0
71C0
71C0
3B80
1F00
0000
0000
0000
0000
0000
ENDCHAR
STARTCHAR onesuperior
ENCODING 103
SWIDTH 480 0
DWIDTH 10 0
BBX 10 20 0 -5
BITMAP
0000
0000
1C00
3C00
1C00
1C00
1C00
3E00
0000
0000
0000
0000
0000
0000
0000
0000
0000
0000
0000
0000
ENDCHAR
STARTCHAR twosuperior
ENCODING 104
SWIDTH 480 0
DWIDTH 10 0
BBX 10 20 0 -5
BITMAP
0000
0000
1E00
3F00
0700
0E00
1C00
3800
3F00
0000
0000
0000
0000
0000
0000
0000
0000
0000
0000
0000
ENDCHAR
STARTCHAR threesuperior
ENCODING 105
SWIDTH 480 0
DWIDTH 10 0
BBX 10 20 0 -5
BITMAP
0000
0000
1E00
3F00
0300
0F00
0300
3F00
1E00
0000
0000
0000
0000
0000
0000
0000
0000
0000
0000
0000
ENDCHAR
STARTCHAR ordfeminine
ENCODING 106
SWIDTH 480 0
DWIDTH 10 0
BBX 10 20 0 -5
BITMAP
0000
0000
1F80
31C0
01C0
3FC0
71C0
71C0
3FC0
0000
7FC0
0000
0000
0000
0000
0000
0000
0000
0000
0000
ENDCHAR
STARTCHAR masculine
ENCODING 107
SWIDTH 480 0
DWIDTH 10 0
BBX 10 20 0 -5
BITMAP
0000
0000
1E00
3F00
7380
7380
7380
3F00
1E00
0000
7F80
0000
0000
0000
0000
0000
0000
0000
0000
0000
ENDCHAR
STARTCHAR guillemotleft
ENCODING 108
SWIDTH 480 0
DWIDTH 10 0
BBX 10 20 0 -5
BITMAP
0000
0000
0000
0000
06C0
0FC0
1F80
3F00
7E00
FC00
7E00
3F00
1F80
0FC0
06C0
0000
0000
0000
0000
0000
ENDCHAR
STARTCHAR guillemotright
ENCODING 109
SWIDTH 480 0
DWIDTH 10 0
BBX 10 20 0 -5
BITMAP
0000
0000
0000
0000
6C00
7E00
3F00
1F80
0FC0
07C0
0FC0
1F80
3F00
7E00
6C00
0000
0000
0000
0000
0000
ENDCHAR
STARTCHAR exclamdown
ENCODING 110
SWIDTH 480 0
DWIDTH 10 0
BBX 10 20 0 -5
BITMAP
0000
0000
0E00
0E00
0000
0E00
0E00
0E00
0E00
0E00
0E00
0E00
0E00
0E00
0E00
0000
0000
0000
0000
0000
ENDCHAR
STARTCHAR questiondown
ENCODING 111
SWIDTH 480 0
DWIDTH 10 0
BBX 10 20 0 -5
BITMAP
0000
0000
0E00
0E00
0000
0E00
0E00
0E00
1C00
3800
71C0
71C0
71C0
3B80
1F00
0000
0000
0000
0000
0000
ENDCHAR
STARTCHAR Adiaeresis
ENCODING 112
SWIDTH 480 0
DWIDTH 10 0
BBX 10 20 0 -5
BITMAP
0000
0000
3B80
3B80
0000
0000
0E00
1F00
3B80
71C0
71C0
7FC0
71C0
71C0
71C0
0000
0000
0000
0000
0000
ENDCHAR
STARTCHAR Ediaeresis
ENCODING 113
SWIDTH 480 0
DWIDTH 10 0
BBX 10 20 0 -5
BITMAP
0000
0000
3B80
3B80
0000
0000
7FC0
7000
7000
7000
7F00
7000
7000
7000
7FC0
0000
0000
0000
0000
0000
ENDCHAR
STARTCHAR Idiaeresis
ENCODING 114
SWIDTH 480 0
DWIDTH 10 0
BBX 10 20 0 -5
BITMAP
0000
0000
3B80
3B80
0000
0000
3F80
0E00
0E00
0E00
0E00
0E00
0E00
0E00
3F80
0000
0000
0000
0000
0000
ENDCHAR
STARTCHAR Odiaeresis
ENCODING 115
SWIDTH 480 0
DWIDTH 10 0
BBX 10 20 0 -5
BITMAP
0000
0000
3B80
3B80
0000
0000
1F00
3B80
71C0
71C0
71C0
71C0
71C0
3B80
1F00
0000
0000
0000
0000
0000
ENDCHAR
STARTCHAR Udiaeresis
ENCODING 116
SWIDTH 480 0
DWIDTH 10 0
BBX 10 20 0 -5
BITMAP
0000
0000
3B80
3B80
0000
0000
71C0
71C0
71C0
71C0
71C0
71C0
71C0
3B80
1F00
0000
0000
0000
0000
0000
ENDCHAR
STARTCHAR Acircumflex
ENCODING 117
SWIDTH 480 0
DWIDTH 10 0
BBX 10 20 0 -5
BITMAP
0000
0000
0E00
1F00
3B80
0000
0E00
1F00
3B80
71C0
71C0
7FC0
71C0
71C0
71C0
0000
0000
0000
0000
0000
ENDCHAR
STARTCHAR Ecircumflex
ENCODING 118
SWIDTH 480 0
DWIDTH 10 0
BBX 10 20 0 -5
BITMAP
0000
0000
0E00
1F00
3B80
0000
7FC0
7000
7000
7000
7F00
7000
7000
7000
7FC0
0000
0000
0000
0000
0000
ENDCHAR
STARTCHAR Icircumflex
ENCODING 119
SWIDTH 480 0
DWIDTH 10 0
BBX 10 20 0 -5
BITMAP
0000
0000
0E00
1F00
3B80
0000
3F80
0E00
0E00
0E00
0E00
0E00
0E00
0E00
3F80
0000
0000
0000
0000
0000
ENDCHAR
STARTCHAR Ocircumflex
ENCODING 120
SWIDTH 480 0
DWIDTH 10 0
BBX 10 20 0 -5
BITMAP
0000
0000
0E00
1F00
3B80
0000
1F00
3B80
71C0
71C0
71C0
71C0
71C0
3B80
1F00
0000
0000
0000
0000
0000
ENDCHAR
STARTCHAR Ucircumflex
ENCODING 121
SWIDTH 480 0
DWIDTH 10 0
BBX 10 20 0 -5
BITMAP
0000
0000
0E00
1F00
3B80
0000
71C0
71C0
71C0
71C0
71C0
71C0
71C0
3BC0
1F00
0000
0000
0000
0000
0000
ENDCHAR
STARTCHAR Aacute
ENCODING 122
SWIDTH 480 0
DWIDTH 10 0
BBX 10 20 0 -5
BITMAP
0000
0000
0380
0700
0E00
0000
0E00
1F00
3B80
71C0
71C0
7FC0
71C0
71C0
71C0
0000
0000
0000
0000
0000
ENDCHAR
STARTCHAR Eacute
ENCODING 123
SWIDTH 480 0
DWIDTH 10 0
BBX 10 20 0 -5
BITMAP
0000
0000
0700
0E00
1C00
0000
7FC0
7000
7000
7000
7F00
7000
7000
7000
7FC0
0000
0000
0000
0000
0000
ENDCHAR
STARTCHAR Iacute
ENCODING 124
SWIDTH 480 0
DWIDTH 10 0
BBX 10 20 0 -5
BITMAP
0000
0000
0700
0E00
1C00
0000
3F80
0E00
0E00
0E00
0E00
0E00
0E00
0E00
3F80
0000
0000
0000
0000
0000
ENDCHAR
STARTCHAR Oacute
ENCODING 125
SWIDTH 480 0
DWIDTH 10 0
BBX 10 20 0 -5
BITMAP
0000
0000
0380
0700
0E00
0000
1F00
3B80
71C0
71C0
71C0
71C0
71C0
3B80
1F00
0000
0000
0000
0000
0000
ENDCHAR
STARTCHAR Uacute
ENCODING 126
SWIDTH 480 0
DWIDTH 10 0
BBX 10 20 0 -5
BITMAP
0000
0000
0380
0700
0E00
0000
71C0
71C0
71C0
71C0
71C0
71C0
71C0
3B80
1F00
0000
0000
0000
0000
0000
ENDCHAR
STARTCHAR Ntilde
ENCODING 127
SWIDTH 480 0
DWIDTH 10 0
BBX 10 20 0 -5
BITMAP
0000
0000
1D80
3F80
3700
0000
61C0
71C0
79C0
7DC0
7FC0
7FC0
77C0
73C0
71C0
0000
0000
0000
0000
0000
ENDCHAR
STARTCHAR a
ENCODING 128
SWIDTH 480 0
DWIDTH 10 0
BBX 10 20 0 -5
BITMAP
0000
0000
0000
0000
0000
0000
0000
1F80
39C0
01C0
3FC0
71C0
71C0
71C0
3FC0
0000
0000
0000
0000
0000
ENDCHAR
STARTCHAR b
ENCODING 129
SWIDTH 480 0
DWIDTH 10 0
BBX 10 20 0 -5
BITMAP
0000
0000
7000
7000
7000
7000
7000
7F00
7B80
71C0
71C0
71C0
71C0
7B80
7F00
0000
0000
0000
0000
0000
ENDCHAR
STARTCHAR c
ENCODING 130
SWIDTH 480 0
DWIDTH 10 0
BBX 10 20 0 -5
BITMAP
0000
0000
0000
0000
0000
0000
0000
1F80
39C0
7000
7000
7000
7000
39C0
1F80
0000
0000
0000
0000
0000
ENDCHAR
STARTCHAR d
ENCODING 131
SWIDTH 480 0
DWIDTH 10 0
BBX 10 20 0 -5
BITMAP
0000
0000
01C0
01C0
01C0
01C0
01C0
1FC0
3BC0
71C0
71C0
71C0
71C0
3BC0
1FC0
0000
0000
0000
0000
0000
ENDCHAR
STARTCHAR e
ENCODING 132
SWIDTH 480 0
DWIDTH 10 0
BBX 10 20 0 -5
BITMAP
0000
0000
0000
0000
0000
0000
0000
1F00
3B80
71C0
7FC0
7000
7000
39C0
1F80
0000
0000
0000
0000
0000
ENDCHAR
STARTCHAR f
ENCODING 133
SWIDTH 480 0
DWIDTH 10 0
BBX 10 20 0 -5
BITMAP
0000
0000
0F80
1DC0
1DC0
1C00
1C00
1C00
1C00
7F00
1C00
1C00
1C00
1C00
1C00
0000
0000
0000
0000
0000
ENDCHAR
STARTCHAR g
ENCODING 134
SWIDTH 480 0
DWIDTH 10 0
BBX 10 20 0 -5
BITMAP
0000
0000
0000
0000
0000
0000
0000
3FC0
73C0
7380
7380
7380
3F00
7000
3F80
71C0
71C0
71C0
3F80
0000
ENDCHAR
STARTCHAR h
ENCODING 135
SWIDTH 480 0
DWIDTH 10 0
BBX 10 20 0 -5
BITMAP
0000
0000
7000
7000
7000
7000
7000
7F00
7B80
71C0
71C0
71C0
71C0
71C0
71C0
0000
0000
0000
0000
0000
ENDCHAR
STARTCHAR i
ENCODING 136
SWIDTH 480 0
DWIDTH 10 0
BBX 10 20 0 -5
BITMAP
0000
0000
0000
0000
0E00
0E00
0000
3E00
0E00
0E00
0E00
0E00
0E00
0E00
7FC0
0000
0000
0000
0000
0000
ENDCHAR
STARTCHAR j
ENCODING 137
SWIDTH 480 0
DWIDTH 10 0
BBX 10 20 0 -5
BITMAP
0000
0000
0000
0000
01C0
01C0
0000
07C0
01C0
01C0
01C0
01C0
01C0
01C0
01C0
39C0
39C0
39C0
1F80
0000
ENDCHAR
STARTCHAR k
ENCODING 138
SWIDTH 480 0
DWIDTH 10 0
BBX 10 20 0 -5
BITMAP
0000
0000
7000
7000
7000
7000
7000
7380
7700
7E00
7C00
7E00
7700
7380
71C0
0000
0000
0000
0000
0000
ENDCHAR
STARTCHAR l
ENCODING 139
SWIDTH 480 0
DWIDTH 10 0
BBX 10 20 0 -5
BITMAP
0000
0000
3E00
0E00
0E00
0E00
0E00
0E00
0E00
0E00
0E00
0E00
0E00
0E00
7FC0
0000
0000
0000
0000
0000
ENDCHAR
STARTCHAR m
ENCODING 140
SWIDTH 480 0
DWIDTH 10 0
BBX 10 20 0 -5
BITMAP
0000
0000
0000
0000
0000
0000
0000
7F80
7FC0
7FC0
7FC0
7FC0
7FC0
7FC0
7FC0
0000
0000
0000
0000
0000
ENDCHAR
STARTCHAR n
ENCODING 141
SWIDTH 480 0
DWIDTH 10 0
BBX 10 20 0 -5
BITMAP
0000
0000
0000
0000
0000
0000
0000
7F00
7B80
71C0
71C0
71C0
71C0
71C0
71C0
0000
0000
0000
0000
0000
ENDCHAR
STARTCHAR o
ENCODING 142
SWIDTH 480 0
DWIDTH 10 0
BBX 10 20 0 -5
BITMAP
0000
0000
0000
0000
0000
0000
0000
1F00
3B80
71C0
71C0
71C0
71C0
3B80
1F00
0000
0000
0000
0000
0000
ENDCHAR
STARTCHAR p
ENCODING 143
SWIDTH 480 0
DWIDTH 10 0
BBX 10 20 0 -5
BITMAP
0000
0000
0000
0000
0000
0000
0000
7F00
7B80
71C0
71C0
71C0
71C0
7B80
7F00
7000
7000
7000
7000
0000
ENDCHAR
STARTCHAR q
ENCODING 144
SWIDTH 480 0
DWIDTH 10 0
BBX 10 20 0 -5
BITMAP
0000
0000
0000
0000
0000
0000
0000
1FC0
3BC0
71C0
71C0
71C0
71C0
3BC0
1FC0
01C0
01C0
01C0
01C0
0000
ENDCHAR
STARTCHAR r
ENCODING 145
SWIDTH 480 0
DWIDTH 10 0
BBX 10 20 0 -5
BITMAP
0000
0000
0000
0000
0000
0000
0000
7F80
3DC0
3800
3800
3800
3800
3800
3800
0000
0000
0000
0000
0000
ENDCHAR
STARTCHAR s
ENCODING 146
SWIDTH 480 0
DWIDTH 10 0
BBX 10 20 0 -5
BITMAP
0000
0000
0000
0000
0000
0000
0000
3F80
71C0
7000
3F80
01C0
01C0
71C0
3F80
0000
0000
0000
0000
0000
ENDCHAR
STARTCHAR t
ENCODING 147
SWIDTH 480 0
DWIDTH 10 0
BBX 10 20 0 -5
BITMAP
0000
0000
0000
0000
1C00
1C00
1C00
7F00
1C00
1C00
1C00
1C00
1C00
1DC0
0F80
0000
0000
0000
0000
0000
ENDCHAR
STARTCHAR u
ENCODING 148
SWIDTH 480 0
DWIDTH 10 0
BBX 10 20 0 -5
BITMAP
0000
0000
0000
0000
0000
0000
0000
71C0
71C0
71C0
71C0
71C0
71C0
3BC0
1FC0
0000
0000
0000
0000
0000
ENDCHAR
STARTCHAR v
ENCODING 149
SWIDTH 480 0
DWIDTH 10 0
BBX 10 20 0 -5
BITMAP
0000
0000
0000
0000
0000
0000
0000
71C0
71C0
3B80
3B80
1F00
1F00
0E00
0E00
0000
0000
0000
0000
0000
ENDCHAR
STARTCHAR w
ENCODING 150
SWIDTH 480 0
DWIDTH 10 0
BBX 10 20 0 -5
BITMAP
0000
0000
0000
0000
0000
0000
0000
71C0
71C0
71C0
7FC0
7FC0
7FC0
7FC0
3B80
0000
0000
0000
0000
0000
ENDCHAR
STARTCHAR x
ENCODING 151
SWIDTH 480 0
DWIDTH 10 0
BBX 10 20 0 -5
BITMAP
0000
0000
0000
0000
0000
0000
0000
71C0
3B80
1F00
0E00
0E00
1F00
3B80
71C0
0000
0000
0000
0000
0000
ENDCHAR
STARTCHAR y
ENCODING 152
SWIDTH 480 0
DWIDTH 10 0
BBX 10 20 0 -5
BITMAP
0000
0000
0000
0000
0000
0000
0000
71C0
71C0
71C0
71C0
71C0
71C0
3BC0
1FC0
01C0
71C0
3B80
1F00
0000
ENDCHAR
STARTCHAR z
ENCODING 153
SWIDTH 480 0
DWIDTH 10 0
BBX 10 20 0 -5
BITMAP
0000
0000
0000
0000
0000
0000
0000
3FC0
01C0
0380
0700
0E00
1C00
3800
3FC0
0000
0000
0000
0000
0000
ENDCHAR
STARTCHAR ae
ENCODING 154
SWIDTH 480 0
DWIDTH 10 0
BBX 10 20 0 -5
BITMAP
0000
0000
0000
0000
0000
0000
0000
3F80
6FC0
0FC0
0F80
3E00
7E00
7EC0
3F80
0000
0000
0000
0000
0000
ENDCHAR
STARTCHAR oslash
ENCODING 155
SWIDTH 480 0
DWIDTH 10 0
BBX 10 20 0 -5
BITMAP
0000
0000
0000
0000
0000
0000
00C0
1F80
3B80
77C0
77C0
7DC0
7DC0
3B80
3F00
6000
0000
0000
0000
0000
ENDCHAR
STARTCHAR aring
ENCODING 156
SWIDTH 480 0
DWIDTH 10 0
BBX 10 20 0 -5
BITMAP
0000
0000
0000
0E00
1B00
1B00
0E00
3F80
71C0
01C0
3FC0
71C0
71C0
71C0
3FC0
0000
0000
0000
0000
0000
ENDCHAR
STARTCHAR division
ENCODING 157
SWIDTH 480 0
DWIDTH 10 0
BBX 10 20 0 -5
BITMAP
0000
0000
0000
0000
0E00
0E00
0000
0000
7FC0
7FC0
0000
0000
0E00
0E00
0000
0000
0000
0000
0000
0000
ENDCHAR
STARTCHAR fm
ENCODING 158
SWIDTH 480 0
DWIDTH 10 0
BBX 10 20 0 -5
BITMAP
0000
0000
0000
0000
0000
0F00
0F00
0000
0000
0000
0000
0F00
0F00
1E00
0000
0000
0000
0000
0000
0000
ENDCHAR
STARTCHAR dup
ENCODING 159
SWIDTH 480 0
DWIDTH 10 0
BBX 10 20 0 -5
BITMAP
0000
0000
0000
0000
0000
3B80
3B80
1F00
7FC0
1F00
3B80
3B80
0000
0000
0000
0000
0000
0000
0000
0000
ENDCHAR
STARTCHAR A
ENCODING 160
SWIDTH 480 0
DWIDTH 10 0
BBX 10 20 0 -5
BITMAP
0000
0000
0E00
1F00
3B80
3B80
71C0
71C0
71C0
7FC0
71C0
71C0
71C0
71C0
71C0
0000
0000
0000
0000
0000
ENDCHAR
STARTCHAR B
ENCODING 161
SWIDTH 480 0
DWIDTH 10 0
BBX 10 20 0 -5
BITMAP
0000
0000
7E00
7700
7380
7380
7380
7700
7F00
7380
71C0
71C0
71C0
7380
7F00
0000
0000
0000
0000
0000
ENDCHAR
STARTCHAR C
ENCODING 162
SWIDTH 480 0
DWIDTH 10 0
BBX 10 20 0 -5
BITMAP
0000
0000
1F00
3B80
71C0
7000
7000
7000
7000
7000
7000
7000
71C0
3B80
1F00
0000
0000
0000
0000
0000
ENDCHAR
STARTCHAR D
ENCODING 163
SWIDTH 480 0
DWIDTH 10 0
BBX 10 20 0 -5
BITMAP
0000
0000
7F00
7380
71C0
71C0
71C0
71C0
71C0
71C0
71C0
71C0
71C0
7380
7F00
0000
0000
0000
0000
0000
ENDCHAR
STARTCHAR E
ENCODING 164
SWIDTH 480 0
DWIDTH 10 0
BBX 10 20 0 -5
BITMAP
0000
0000
7FC0
7000
7000
7000
7000
7000
7F00
7000
7000
7000
7000
7000
7FC0
0000
0000
0000
0000
0000
ENDCHAR
STARTCHAR F
ENCODING 165
SWIDTH 480 0
DWIDTH 10 0
BBX 10 20 0 -5
BITMAP
0000
0000
7FC0
7000
7000
7000
7000
7000
7F00
7000
7000
7000
7000
7000
7000
0000
0000
0000
0000
0000
ENDCHAR
STARTCHAR G
ENCODING 166
SWIDTH 480 0
DWIDTH 10 0
BBX 10 20 0 -5
BITMAP
0000
0000
1F00
3B80
71C0
7000
7000
7000
77C0
71C0
71C0
71C0
71C0
3BC0
1FC0
0000
0000
0000
0000
0000
ENDCHAR
STARTCHAR H
ENCODING 167
SWIDTH 480 0
DWIDTH 10 0
BBX 10 20 0 -5
BITMAP
0000
0000
71C0
71C0
71C0
71C0
71C0
71C0
7FC0
71C0
71C0
71C0
71C0
71C0
71C0
0000
0000
0000
0000
0000
ENDCHAR
STARTCHAR I
ENCODING 168
SWIDTH 480 0
DWIDTH 10 0
BBX 10 20 0 -5
BITMAP
0000
0000
7FC0
0E00
0E00
0E00
0E00
0E00
0E00
0E00
0E00
0E00
0E00
0E00
7FC0
0000
0000
0000
0000
0000
ENDCHAR
STARTCHAR J
ENCODING 169
SWIDTH 480 0
DWIDTH 10 0
BBX 10 20 0 -5
BITMAP
0000
0000
0FC0
01C0
01C0
01C0
01C0
01C0
01C0
01C0
01C0
71C0
71C0
3B80
1F00
0000
0000
0000
0000
0000
ENDCHAR
STARTCHAR K
ENCODING 170
SWIDTH 480 0
DWIDTH 10 0
BBX 10 20 0 -5
BITMAP
0000
0000
71C0
71C0
7380
7380
7700
7700
7E00
7700
7700
7380
7380
71C0
71C0
0000
0000
0000
0000
0000
ENDCHAR
STARTCHAR L
ENCODING 171
SWIDTH 480 0
DWIDTH 10 0
BBX 10 20 0 -5
BITMAP
0000
0000
7000
7000
7000
7000
7000
7000
7000
7000
7000
7000
7000
7000
7FC0
0000
0000
0000
0000
0000
ENDCHAR
STARTCHAR M
ENCODING 172
SWIDTH 480 0
DWIDTH 10 0
BBX 10 20 0 -5
BITMAP
0000
0000
71C0
71C0
7BC0
7BC0
7FC0
7FC0
7FC0
7FC0
7FC0
71C0
71C0
71C0
71C0
0000
0000
0000
0000
0000
ENDCHAR
STARTCHAR N
ENCODING 173
SWIDTH 480 0
DWIDTH 10 0
BBX 10 20 0 -5
BITMAP
0000
0000
71C0
79C0
79C0
7DC0
7DC0
7FC0
7FC0
77C0
77C0
73C0
73C0
71C0
71C0
0000
0000
0000
0000
0000
ENDCHAR
STARTCHAR O
ENCODING 174
SWIDTH 480 0
DWIDTH 10 0
BBX 10 20 0 -5
BITMAP
0000
0000
1F00
3B80
71C0
71C0
71C0
71C0
71C0
71C0
71C0
71C0
71C0
3B80
1F00
0000
0000
0000
0000
0000
ENDCHAR
STARTCHAR P
ENCODING 175
SWIDTH 480 0
DWIDTH 10 0
BBX 10 20 0 -5
BITMAP
0000
0000
7F00
7380
71C0
71C0
71C0
71C0
7380
7F00
7000
7000
7000
7000
7000
0000
0000
0000
0000
0000
ENDCHAR
STARTCHAR Q
ENCODING 176
SWIDTH 480 0
DWIDTH 10 0
BBX 10 20 0 -5
BITMAP
0000
0000
1F00
3B80
71C0
71C0
71C0
71C0
71C0
71C0
71C0
7FC0
77C0
3B80
1F80
01C0
0000
0000
0000
0000
ENDCHAR
STARTCHAR R
ENCODING 177
SWIDTH 480 0
DWIDTH 10 0
BBX 10 20 0 -5
BITMAP
0000
0000
7F00
7380
71C0
71C0
71C0
71C0
7380
7F00
7700
7380
7380
71C0
71C0
0000
0000
0000
0000
0000
ENDCHAR
STARTCHAR S
ENCODING 178
SWIDTH 480 0
DWIDTH 10 0
BBX 10 20 0 -5
BITMAP
0000
0000
1F00
3B80
71C0
7000
7000
3800
1F00
0380
01C0
01C0
71C0
3B80
1F00
0000
0000
0000
0000
0000
ENDCHAR
STARTCHAR T
ENCODING 179
SWIDTH 480 0
DWIDTH 10 0
BBX 10 20 0 -5
BITMAP
0000
0000
7FC0
0E00
0E00
0E00
0E00
0E00
0E00
0E00
0E00
0E00
0E00
0E00
0E00
0000
0000
0000
0000
0000
ENDCHAR
STARTCHAR U
ENCODING 180
SWIDTH 480 0
DWIDTH 10 0
BBX 10 20 0 -5
BITMAP
0000
0000
71C0
71C0
71C0
71C0
71C0
71C0
71C0
71C0
71C0
71C0
71C0
3B80
1F00
0000
0000
0000
0000
0000
ENDCHAR
STARTCHAR V
ENCODING 181
SWIDTH 480 0
DWIDTH 10 0
BBX 10 20 0 -5
BITMAP
0000
0000
71C0
71C0
71C0
71C0
3B80
3B80
3B80
1F00
1F00
1F00
0E00
0E00
0E00
0000
0000
0000
0000
0000
ENDCHAR
STARTCHAR W
ENCODING 182
SWIDTH 480 0
DWIDTH 10 0
BBX 10 20 0 -5
BITMAP
0000
0000
71C0
71C0
71C0
71C0
71C0
7FC0
7FC0
7FC0
7FC0
7BC0
7BC0
71C0
71C0
0000
0000
0000
0000
0000
ENDCHAR
STARTCHAR X
ENCODING 183
SWIDTH 480 0
DWIDTH 10 0
BBX 10 20 0 -5
BITMAP
0000
0000
71C0
71C0
3B80
3B80
1F00
1F00
0E00
1F00
1F00
3B80
3B80
71C0
71C0
0000
0000
0000
0000
0000
ENDCHAR
STARTCHAR Y
ENCODING 184
SWIDTH 480 0
DWIDTH 10 0
BBX 10 20 0 -5
BITMAP
0000
0000
71C0
71C0
3B80
3B80
1F00
1F00
0E00
0E00
0E00
0E00
0E00
0E00
0E00
0000
0000
0000
0000
0000
ENDCHAR
STARTCHAR Z
ENCODING 185
SWIDTH 480 0
DWIDTH 10 0
BBX 10 20 0 -5
BITMAP
0000
0000
7FC0
01C0
01C0
0380
0700
0700
0E00
1C00
1C00
3800
7000
7000
7FC0
0000
0000
0000
0000
0000
ENDCHAR
STARTCHAR AE
ENCODING 186
SWIDTH 480 0
DWIDTH 10 0
BBX 10 20 0 -5
BITMAP
0000
0000
0FC0
1F00
3F00
3F00
7700
7700
7FC0
7700
7700
7700
7700
7700
77C0
0000
0000
0000
0000
0000
ENDCHAR
STARTCHAR Ooblique
ENCODING 187
SWIDTH 480 0
DWIDTH 10 0
BBX 10 20 0 -5
BITMAP
0000
00C0
1F80
3B80
73C0
73C0
77C0
77C0
77C0
7DC0
7DC0
7DC0
79C0
3B80
3F00
6000
0000
0000
0000
0000
ENDCHAR
STARTCHAR Aring
ENCODING 188
SWIDTH 480 0
DWIDTH 10 0
BBX 10 20 0 -5
BITMAP
0000
0000
0E00
1B00
1B00
0E00
0E00
1F00
3B80
71C0
71C0
7FC0
71C0
71C0
71C0
0000
0000
0000
0000
0000
ENDCHAR
STARTCHAR Ccedilla
ENCODING 189
SWIDTH 480 0
DWIDTH 10 0
BBX 10 20 0 -5
BITMAP
0000
0000
1F00
3B80
71C0
7000
7000
7000
7000
7000
7000
7000
71C0
3B80
1F00
0E00
0600
1B00
0E00
0000
ENDCHAR
STARTCHAR semicolon
ENCODING 190
SWIDTH 480 0
DWIDTH 10 0
BBX 10 20 0 -5
BITMAP
0000
0000
0000
0000
0000
0F00
0F00
0000
0000
0000
0000
0F00
0F00
1E00
0000
0000
0000
0000
0000
0000
ENDCHAR
STARTCHAR asterisk
ENCODING 191
SWIDTH 480 0
DWIDTH 10 0
BBX 10 20 0 -5
BITMAP
0000
0000
0000
0000
0000
3B80
3B80
1F00
7FC0
1F00
3B80
3B80
0000
0000
0000
0000
0000
0000
0000
0000
ENDCHAR
STARTCHAR c0
ENCODING 192
SWIDTH 480 0
DWIDTH 10 0
BBX 10 20 0 -5
BITMAP
0000
0000
0000
0000
0000
0000
0000
0000
0000
0000
0000
0000
0000
0000
0000
0000
0000
0000
0000
0000
ENDCHAR
STARTCHAR c1
ENCODING 193
SWIDTH 480 0
DWIDTH 10 0
BBX 10 20 0 -5
BITMAP
0000
0000
0000
0000
0000
0000
0000
0000
0000
0000
0000
0000
0000
0000
0000
0000
0000
0000
0000
0000
ENDCHAR
STARTCHAR c2
ENCODING 194
SWIDTH 480 0
DWIDTH 10 0
BBX 10 20 0 -5
BITMAP
0000
0000
0000
0000
0000
0000
0000
0000
0000
0000
0000
0000
0000
0000
0000
0000
0000
0000
0000
0000
ENDCHAR
STARTCHAR c3
ENCODING 195
SWIDTH 480 0
DWIDTH 10 0
BBX 10 20 0 -5
BITMAP
0000
0000
0000
0000
0000
0000
0000
0000
0000
0000
0000
0000
0000
0000
0000
0000
0000
0000
0000
0000
ENDCHAR
STARTCHAR c4
ENCODING 196
SWIDTH 480 0
DWIDTH 10 0
BBX 10 20 0 -5
BITMAP
0000
0000
0000
0000
0000
0000
0000
0000
0000
0000
0000
0000
0000
0000
0000
0000
0000
0000
0000
0000
ENDCHAR
STARTCHAR c5
ENCODING 197
SWIDTH 480 0
DWIDTH 10 0
BBX 10 20 0 -5
BITMAP
0000
0000
0000
0000
0000
0000
0000
0000
0000
0000
0000
0000
0000
0000
0000
0000
0000
0000
0000
0000
ENDCHAR
STARTCHAR c6
ENCODING 198
SWIDTH 480 0
DWIDTH 10 0
BBX 10 20 0 -5
BITMAP
0000
0000
0000
0000
0000
0000
0000
0000
0000
0000
0000
0000
0000
0000
0000
0000
0000
0000
0000
0000
ENDCHAR
STARTCHAR c7
ENCODING 199
SWIDTH 480 0
DWIDTH 10 0
BBX 10 20 0 -5
BITMAP
0000
0000
0000
0000
0000
0000
0000
0000
0000
0000
0000
0000
0000
0000
0000
0000
0000
0000
0000
0000
ENDCHAR
STARTCHAR c8
ENCODING 200
SWIDTH 480 0
DWIDTH 10 0
BBX 10 20 0 -5
BITMAP
0000
0000
0000
0000
0000
0000
0000
0000
0000
0000
0000
0000
0000
0000
0000
0000
0000
0000
0000
0000
ENDCHAR
STARTCHAR c9
ENCODING 201
SWIDTH 480 0
DWIDTH 10 0
BBX 10 20 0 -5
BITMAP
0000
0000
0000
0000
0000
0000
0000
0000
0000
0000
0000
0000
0000
0000
0000
0000
0000
0000
0000
0000
ENDCHAR
STARTCHAR ca
ENCODING 202
SWIDTH 480 0
DWIDTH 10 0
BBX 10 20 0 -5
BITMAP
0000
0000
0000
0000
0000
0000
0000
0000
0000
0000
0000
0000
0000
0000
0000
0000
0000
0000
0000
0000
ENDCHAR
STARTCHAR cb
ENCODING 203
SWIDTH 480 0
DWIDTH 10 0
BBX 10 20 0 -5
BITMAP
0000
0000
0000
0000
0000
0000
0000
0000
0000
0000
0000
0000
0000
0000
0000
0000
0000
0000
0000
0000
ENDCHAR
STARTCHAR cc
ENCODING 204
SWIDTH 480 0
DWIDTH 10 0
BBX 10 20 0 -5
BITMAP
0000
0000
0000
0000
0000
0000
0000
0000
0000
0000
0000
0000
0000
0000
0000
0000
0000
0000
0000
0000
ENDCHAR
STARTCHAR cd
ENCODING 205
SWIDTH 480 0
DWIDTH 10 0
BBX 10 20 0 -5
BITMAP
0000
0000
0000
0000
0000
0000
0000
0000
0000
0000
0000
0000
0000
0000
0000
0000
0000
0000
0000
0000
ENDCHAR
STARTCHAR ce
ENCODING 206
SWIDTH 480 0
DWIDTH 10 0
BBX 10 20 0 -5
BITMAP
0000
0000
0000
0000
0000
0000
0000
0000
0000
0000
0000
0000
0000
0000
0000
0000
0000
0000
0000
0000
ENDCHAR
STARTCHAR cf
ENCODING 207
SWIDTH 480 0
DWIDTH 10 0
BBX 10 20 0 -5
BITMAP
0000
0000
0000
0000
0000
0000
0000
0000
0000
0000
0000
0000
0000
0000
0000
0000
0000
0000
0000
0000
ENDCHAR
STARTCHAR copyright
ENCODING 208
SWIDTH 480 0
DWIDTH 10 0
BBX 10 20 0 -5
BITMAP
0000
0000
0000
0000
1E00
3300
6180
5E80
5280
5080
5280
5E80
6180
3300
1E00
0000
0000
0000
0000
0000
ENDCHAR
STARTCHAR registered
ENCODING 209
SWIDTH 480 0
DWIDTH 10 0
BBX 10 20 0 -5
BITMAP
0000
0000
0000
0000
1E00
3300
6180
5E80
5280
5E80
5480
5680
6180
3300
1E00
0000
0000
0000
0000
0000
ENDCHAR
STARTCHAR boxA
ENCODING 210
SWIDTH 480 0
DWIDTH 10 0
BBX 10 20 0 -5
BITMAP
0000
0000
1800
1800
2400
2400
4200
4200
7E00
4200
4200
4200
0000
FFC0
8040
8040
FFC0
0000
0000
0000
ENDCHAR
STARTCHAR insert
ENCODING 211
SWIDTH 480 0
DWIDTH 10 0
BBX 10 20 0 -5
BITMAP
0000
0000
0000
0000
0000
0000
0C00
1E00
3F00
7F80
F3C0
E1C0
C0C0
0000
0000
0000
0000
0000
0000
0000
ENDCHAR
STARTCHAR boxB
ENCODING 212
SWIDTH 480 0
DWIDTH 10 0
BBX 10 20 0 -5
BITMAP
0000
0000
1E00
1100
1100
1100
1F00
1080
1080
1080
1080
1F00
0000
FFC0
8040
8040
FFC0
0000
0000
0000
ENDCHAR
STARTCHAR box6
ENCODING 213
SWIDTH 480 0
DWIDTH 10 0
BBX 10 20 0 -5
BITMAP
0000
FFC0
8040
8040
8C40
9240
A040
A040
AC40
B240
A140
A140
A140
9240
8C40
8040
FFC0
0000
0000
0000
ENDCHAR
STARTCHAR plusminus
ENCODING 214
SWIDTH 480 0
DWIDTH 10 0
BBX 10 20 0 -5
BITMAP
0000
0000
0000
0000
0E00
0E00
7FC0
7FC0
0E00
0E00
0000
7FC0
7FC0
0000
0000
0000
0000
0000
0000
0000
ENDCHAR
STARTCHAR ETH
ENCODING 215
SWIDTH 480 0
DWIDTH 10 0
BBX 10 20 0 -5
BITMAP
0000
0000
7F00
7380
71C0
71C0
71C0
71C0
FDC0
71C0
71C0
71C0
71C0
7380
7F00
0000
0000
0000
0000
0000
ENDCHAR
STARTCHAR rightarrow
ENCODING 216
SWIDTH 480 0
DWIDTH 10 0
BBX 10 20 0 -5
BITMAP
0000
0000
0000
0000
0000
0000
0400
0600
0700
FF80
FF80
0700
0600
0400
0000
0000
0000
0000
0000
0000
ENDCHAR
STARTCHAR THORN
ENCODING 217
SWIDTH 480 0
DWIDTH 10 0
BBX 10 20 0 -5
BITMAP
0000
0000
0000
0000
3E00
1C00
1F80
1DC0
1DC0
1DC0
1F80
1C00
1C00
1C00
3E00
0000
0000
0000
0000
0000
ENDCHAR
STARTCHAR upshift
ENCODING 218
SWIDTH 480 0
DWIDTH 10 0
BBX 10 20 0 -5
BITMAP
0000
0000
0C00
1200
1200
2100
2100
4080
7380
1200
1200
1200
1200
1200
1200
1200
1E00
0000
0000
0000
ENDCHAR
STARTCHAR human
ENCODING 219
SWIDTH 480 0
DWIDTH 10 0
BBX 10 20 0 -5
BITMAP
0000
0000
0000
1C00
2200
2200
2200
1C00
0800
7F00
0800
0800
1400
2200
4100
0000
0000
0000
0000
0000
ENDCHAR
STARTCHAR underB
ENCODING 220
SWIDTH 480 0
DWIDTH 10 0
BBX 10 20 0 -5
BITMAP
0000
3C00
2200
2100
2200
3C00
2200
2100
2100
2200
3C00
0000
FFC0
FFC0
0000
0000
0000
0000
0000
0000
ENDCHAR
STARTCHAR downshift
ENCODING 221
SWIDTH 480 0
DWIDTH 10 0
BBX 10 20 0 -5
BITMAP
0000
0000
1E00
1200
1200
1200
1200
1200
1200
1200
7380
4080
2100
2100
1200
1200
0C00
0000
0000
0000
ENDCHAR
STARTCHAR boxquestion
ENCODING 222
SWIDTH 480 0
DWIDTH 10 0
BBX 10 20 0 -5
BITMAP
0000
FFC0
8040
8040
9E40
A140
A140
8140
8240
8440
8840
8840
8040
8840
8840
8040
FFC0
0000
0000
0000
ENDCHAR
STARTCHAR boxsolid
ENCODING 223
SWIDTH 480 0
DWIDTH 10 0
BBX 10 20 0 -5
BITMAP
0000
FFC0
FFC0
FFC0
FFC0
FFC0
FFC0
FFC0
FFC0
FFC0
FFC0
FFC0
FFC0
FFC0
FFC0
FFC0
FFC0
0000
0000
0000
ENDCHAR
STARTCHAR e0
ENCODING 224
SWIDTH 480 0
DWIDTH 10 0
BBX 10 20 0 -5
BITMAP
0000
0000
0000
0000
0000
0000
0000
0000
0000
0000
0000
0000
0000
0000
0000
0000
0000
0000
0000
0000
ENDCHAR
STARTCHAR e1
ENCODING 225
SWIDTH 480 0
DWIDTH 10 0
BBX 10 20 0 -5
BITMAP
0000
0000
0000
0000
0000
0000
0000
0000
0000
0000
0000
0000
0000
0000
0000
0000
0000
0000
0000
0000
ENDCHAR
STARTCHAR e2
ENCODING 226
SWIDTH 480 0
DWIDTH 10 0
BBX 10 20 0 -5
BITMAP
0000
0000
0000
0000
0000
0000
0000
0000
0000
0000
0000
0000
0000
0000
0000
0000
0000
0000
0000
0000
ENDCHAR
STARTCHAR e3
ENCODING 227
SWIDTH 480 0
DWIDTH 10 0
BBX 10 20 0 -5
BITMAP
0000
0000
0000
0000
0000
0000
0000
0000
0000
0000
0000
0000
0000
0000
0000
0000
0000
0000
0000
0000
ENDCHAR
STARTCHAR e4
ENCODING 228
SWIDTH 480 0
DWIDTH 10 0
BBX 10 20 0 -5
BITMAP
0000
0000
0000
0000
0000
0000
0000
0000
0000
0000
0000
0000
0000
0000
0000
0000
0000
0000
0000
0000
ENDCHAR
STARTCHAR e5
ENCODING 229
SWIDTH 480 0
DWIDTH 10 0
BBX 10 20 0 -5
BITMAP
0000
0000
0000
0000
0000
0000
0000
0000
0000
0000
0000
0000
0000
0000
0000
0000
0000
0000
0000
0000
ENDCHAR
STARTCHAR e6
ENCODING 230
SWIDTH 480 0
DWIDTH 10 0
BBX 10 20 0 -5
BITMAP
0000
0000
0000
0000
0000
0000
0000
0000
0000
0000
0000
0000
0000
0000
0000
0000
0000
0000
0000
0000
ENDCHAR
STARTCHAR e7
ENCODING 231
SWIDTH 480 0
DWIDTH 10 0
BBX 10 20 0 -5
BITMAP
0000
0000
0000
0000
0000
0000
0000
0000
0000
0000
0000
0000
0000
0000
0000
0000
0000
0000
0000
0000
ENDCHAR
STARTCHAR e8
ENCODING 232
SWIDTH 480 0
DWIDTH 10 0
BBX 10 20 0 -5
BITMAP
0000
0000
0000
0000
0000
0000
0000
0000
0000
0000
0000
0000
0000
0000
0000
0000
0000
0000
0000
0000
ENDCHAR
STARTCHAR e9
ENCODING 233
SWIDTH 480 0
DWIDTH 10 0
BBX 10 20 0 -5
BITMAP
0000
0000
0000
0000
0000
0000
0000
0000
0000
0000
0000
0000
0000
0000
0000
0000
0000
0000
0000
0000
ENDCHAR
STARTCHAR ea
ENCODING 234
SWIDTH 480 0
DWIDTH 10 0
BBX 10 20 0 -5
BITMAP
0000
0000
0000
0000
0000
0000
0000
0000
0000
0000
0000
0000
0000
0000
0000
0000
0000
0000
0000
0000
ENDCHAR
STARTCHAR eb
ENCODING 235
SWIDTH 480 0
DWIDTH 10 0
BBX 10 20 0 -5
BITMAP
0000
0000
0000
0000
0000
0000
0000
0000
0000
0000
0000
0000
0000
0000
0000
0000
0000
0000
0000
0000
ENDCHAR
STARTCHAR ec
ENCODING 236
SWIDTH 480 0
DWIDTH 10 0
BBX 10 20 0 -5
BITMAP
0000
0000
0000
0000
0000
0000
0000
0000
0000
0000
0000
0000
0000
0000
0000
0000
0000
0000
0000
0000
ENDCHAR
STARTCHAR ed
ENCODING 237
SWIDTH 480 0
DWIDTH 10 0
BBX 10 20 0 -5
BITMAP
0000
0000
0000
0000
0000
0000
0000
0000
0000
0000
0000
0000
0000
0000
0000
0000
0000
0000
0000
0000
ENDCHAR
STARTCHAR ee
ENCODING 238
SWIDTH 480 0
DWIDTH 10 0
BBX 10 20 0 -5
BITMAP
0000
0000
0000
0000
0000
0000
0000
0000
0000
0000
0000
0000
0000
0000
0000
0000
0000
0000
0000
0000
ENDCHAR
STARTCHAR ef
ENCODING 239
SWIDTH 480 0
DWIDTH 10 0
BBX 10 20 0 -5
BITMAP
0000
0000
0000
0000
0000
0000
0000
0000
0000
0000
0000
0000
0000
0000
0000
0000
0000
0000
0000
0000
ENDCHAR
STARTCHAR badcommhi
ENCODING 240
SWIDTH 480 0
DWIDTH 10 0
BBX 10 20 0 -5
BITMAP
0000
0000
0000
8000
C000
E000
7000
FFC0
FFC0
0E00
0700
0380
01C0
00C0
0040
0000
0000
0000
0000
0000
ENDCHAR
STARTCHAR commhi
ENCODING 241
SWIDTH 480 0
DWIDTH 10 0
BBX 10 20 0 -5
BITMAP
0000
0000
0000
0000
0000
0000
0000
FFC0
FFC0
0000
0000
0000
0000
0000
0000
0000
0000
0000
0000
0000
ENDCHAR
STARTCHAR commjag
ENCODING 242
SWIDTH 480 0
DWIDTH 10 0
BBX 10 20 0 -5
BITMAP
0000
0000
0000
0000
0000
0000
0000
FE00
FE00
0C00
1800
3FC0
3FC0
0000
0000
0000
0000
0000
0000
0000
ENDCHAR
STARTCHAR commlo
ENCODING 243
SWIDTH 480 0
DWIDTH 10 0
BBX 10 20 0 -5
BITMAP
0000
0000
0000
0000
0000
0000
0000
0000
0000
0000
0000
FFC0
FFC0
0000
0000
0000
0000
0000
0000
0000
ENDCHAR
STARTCHAR clockleft
ENCODING 244
SWIDTH 480 0
DWIDTH 10 0
BBX 10 20 0 -5
BITMAP
0000
0000
0000
0000
0080
0400
0000
1000
0000
0040
2080
0080
0080
1080
0080
0400
0080
0000
0000
0000
ENDCHAR
STARTCHAR clockright
ENCODING 245
SWIDTH 480 0
DWIDTH 10 0
BBX 10 20 0 -5
BITMAP
0000
0000
0000
0000
2000
0000
2800
4000
8000
0000
0400
0000
0000
0800
0000
2000
0000
0000
0000
0000
ENDCHAR
STARTCHAR lock
ENCODING 246
SWIDTH 480 0
DWIDTH 10 0
BBX 10 20 0 -5
BITMAP
0000
0000
8040
C0C0
E1C0
F3C0
7F80
3F00
1E00
3F00
7F80
F3C0
E1C0
C0C0
8040
0000
0000
0000
0000
0000
ENDCHAR
STARTCHAR eth
ENCODING 247
SWIDTH 480 0
DWIDTH 10 0
BBX 10 20 0 -5
BITMAP
0000
0000
6600
7E00
3C00
3C00
7E00
6700
1F80
3BC0
71C0
71C0
71C0
3B80
1F00
0000
0000
0000
0000
0000
ENDCHAR
STARTCHAR leftarrow
ENCODING 248
SWIDTH 480 0
DWIDTH 10 0
BBX 10 20 0 -5
BITMAP
0000
0000
0000
0000
0000
0000
0800
1800
3800
7FC0
7FC0
3800
1800
0800
0000
0000
0000
0000
0000
0000
ENDCHAR
STARTCHAR thorn
ENCODING 249
SWIDTH 480 0
DWIDTH 10 0
BBX 10 20 0 -5
BITMAP
0000
0000
0000
0000
0000
0000
0000
3C00
1F00
1F80
1F80
1F00
1C00
1C00
3C00
0000
0000
0000
0000
0000
ENDCHAR
STARTCHAR keyleft
ENCODING 250
SWIDTH 480 0
DWIDTH 10 0
BBX 10 20 0 -5
BITMAP
0000
0000
0000
0000
0000
0000
0E00
1F00
3180
31C0
3180
1F00
0E00
0000
0000
0000
0000
0000
0000
0000
ENDCHAR
STARTCHAR keyright
ENCODING 251
SWIDTH 480 0
DWIDTH 10 0
BBX 10 20 0 -5
BITMAP
0000
0000
0000
0000
0000
0000
0000
0000
0000
FF80
1D80
1D80
0180
0000
0000
0000
0000
0000
0000
0000
ENDCHAR
STARTCHAR box4
ENCODING 252
SWIDTH 480 0
DWIDTH 10 0
BBX 10 20 0 -5
BITMAP
0000
FFC0
8040
8040
8240
8640
8A40
9240
A240
A240
BF40
8240
8240
8240
8240
8040
FFC0
0000
0000
0000
ENDCHAR
STARTCHAR underA
ENCODING 253
SWIDTH 480 0
DWIDTH 10 0
BBX 10 20 0 -5
BITMAP
0000
0000
0C00
0C00
1200
1200
2100
3F00
2100
2100
2100
0000
FFC0
FFC0
0000
0000
0000
0000
0000
0000
ENDCHAR
STARTCHAR magcard
ENCODING 254
SWIDTH 480 0
DWIDTH 10 0
BBX 10 20 0 -5
BITMAP
0000
0000
0000
0000
0000
FFC0
8040
8040
8040
8040
FFC0
8040
8040
FFC0
0000
0000
0000
0000
0000
0000
ENDCHAR
STARTCHAR boxhuman
ENCODING 255
SWIDTH 480 0
DWIDTH 10 0
BBX 10 20 0 -5
BITMAP
0000
FFC0
8040
8E40
9140
9140
8E40
8440
BFC0
8440
8440
8440
8440
8A40
9140
A0C0
FFC0
0000
0000
0000
ENDCHAR
STARTCHAR apl_space
ENCODING 272
SWIDTH 480 0
DWIDTH 10 0
BBX 10 20 0 -5
BITMAP
0000
0000
0000
0000
0000
0000
0000
0000
0000
0000
0000
0000
0000
0000
0000
0000
0000
0000
0000
0000
ENDCHAR
STARTCHAR apl_bracketright
ENCODING 316
SWIDTH 480 0
DWIDTH 10 0
BBX 10 20 0 -5
BITMAP
0000
0000
3F80
0380
0380
0380
0380
0380
0380
0380
0380
0380
0380
0380
3F80
0000
0000
0000
0000
0000
ENDCHAR
STARTCHAR apl_bracketleft
ENCODING 328
SWIDTH 480 0
DWIDTH 10 0
BBX 10 20 0 -5
BITMAP
0000
0000
3F80
3800
3800
3800
3800
3800
3800
3800
3800
3800
3800
3800
3F80
0000
0000
0000
0000
0000
ENDCHAR
STARTCHAR apl_stile
ENCODING 347
SWIDTH 480 0
DWIDTH 10 0
BBX 10 20 0 -5
BITMAP
0E00
0E00
0E00
0E00
0E00
0E00
0E00
0E00
0E00
0E00
0E00
0E00
0E00
0E00
0E00
0E00
0E00
0E00
0E00
0E00
ENDCHAR
STARTCHAR apl_2vertical
ENCODING 384
SWIDTH 480 0
DWIDTH 10 0
BBX 10 20 0 -5
BITMAP
71C0
71C0
71C0
71C0
71C0
71C0
71C0
71C0
71C0
71C0
71C0
71C0
71C0
71C0
71C0
71C0
71C0
71C0
71C0
71C0
ENDCHAR
STARTCHAR apl_2horizontal
ENCODING 385
SWIDTH 480 0
DWIDTH 10 0
BBX 10 20 0 -5
BITMAP
0000
0000
FFC0
0000
0000
0000
0000
0000
0000
0000
0000
0000
0000
0000
0000
0000
0000
FFC0
0000
0000
ENDCHAR
STARTCHAR apl_leftvbar
ENCODING 386
SWIDTH 480 0
DWIDTH 10 0
BBX 10 20 0 -5
BITMAP
7000
7000
7000
7000
7000
7000
7000
7000
7000
7000
7000
7000
7000
7000
7000
7000
7000
7000
7000
7000
ENDCHAR
STARTCHAR apl_rightvbar
ENCODING 387
SWIDTH 480 0
DWIDTH 10 0
BBX 10 20 0 -5
BITMAP
01C0
01C0
01C0
01C0
01C0
01C0
01C0
01C0
01C0
01C0
01C0
01C0
01C0
01C0
01C0
01C0
01C0
01C0
01C0
01C0
ENDCHAR
STARTCHAR apl_midvbar
ENCODING 388
SWIDTH 480 0
DWIDTH 10 0
BBX 10 20 0 -5
BITMAP
0E00
0E00
0E00
0E00
0E00
0E00
0E00
0E00
0E00
0E00
0E00
0E00
0E00
0E00
0E00
0E00
0E00
0E00
0E00
0E00
ENDCHAR
STARTCHAR apl_leftsolid
ENCODING 393
SWIDTH 480 0
DWIDTH 10 0
BBX 10 20 0 -5
BITMAP
FE00
FE00
FE00
FE00
FE00
FE00
FE00
FE00
FE00
FE00
FE00
FE00
FE00
FE00
FE00
FE00
FE00
FE00
FE00
FE00
ENDCHAR
STARTCHAR apl_rightsolid
ENCODING 394
SWIDTH 480 0
DWIDTH 10 0
BBX 10 20 0 -5
BITMAP
07C0
07C0
07C0
07C0
07C0
07C0
07C0
07C0
07C0
07C0
07C0
07C0
07C0
07C0
07C0
07C0
07C0
07C0
07C0
07C0
ENDCHAR
STARTCHAR apl_topsolid
ENCODING 395
SWIDTH 480 0
DWIDTH 10 0
BBX 10 20 0 -5
BITMAP
FFC0
FFC0
FFC0
FFC0
FFC0
FFC0
FFC0
FFC0
FFC0
FFC0
0000
0000
0000
0000
0000
0000
0000
0000
0000
0000
ENDCHAR
STARTCHAR apl_bottomsolid
ENCODING 396
SWIDTH 480 0
DWIDTH 10 0
BBX 10 20 0 -5
BITMAP
0000
0000
0000
0000
0000
0000
0000
0000
0000
0000
FFC0
FFC0
FFC0
FFC0
FFC0
FFC0
FFC0
FFC0
FFC0
FFC0
ENDCHAR
STARTCHAR apl_solid
ENCODING 397
SWIDTH 480 0
DWIDTH 10 0
BBX 10 20 0 -5
BITMAP
FFC0
FFC0
FFC0
FFC0
FFC0
FFC0
FFC0
FFC0
FFC0
FFC0
FFC0
FFC0
FFC0
FFC0
FFC0
FFC0
FFC0
FFC0
FFC0
FFC0
ENDCHAR
STARTCHAR apl_midhbar
ENCODING 402
SWIDTH 480 0
DWIDTH 10 0
BBX 10 20 0 -5
BITMAP
0000
0000
0000
0000
0000
0000
0000
0000
0000
FFC0
0000
0000
0000
0000
0000
0000
0000
0000
0000
0000
ENDCHAR
STARTCHAR apl_lowerleft
ENCODING 419
SWIDTH 480 0
DWIDTH 10 0
BBX 10 20 0 -5
BITMAP
0E00
0E00
0E00
0E00
0E00
0E00
0E00
0E00
0E00
0FC0
0000
0000
0000
0000
0000
0000
0000
0000
0000
0000
ENDCHAR
STARTCHAR apl_upperleft
ENCODING 420
SWIDTH 480 0
DWIDTH 10 0
BBX 10 20 0 -5
BITMAP
0000
0000
0000
0000
0000
0000
0000
0000
0000
0FC0
0E00
0E00
0E00
0E00
0E00
0E00
0E00
0E00
0E00
0E00
ENDCHAR
STARTCHAR apl_leftjoin
ENCODING 421
SWIDTH 480 0
DWIDTH 10 0
BBX 10 20 0 -5
BITMAP
0E00
0E00
0E00
0E00
0E00
0E00
0E00
0E00
0E00
0FC0
0E00
0E00
0E00
0E00
0E00
0E00
0E00
0E00
0E00
0E00
ENDCHAR
STARTCHAR apl_bottomjoin
ENCODING 422
SWIDTH 480 0
DWIDTH 10 0
BBX 10 20 0 -5
BITMAP
0E00
0E00
0E00
0E00
0E00
0E00
0E00
0E00
0E00
FFC0
0000
0000
0000
0000
0000
0000
0000
0000
0000
0000
ENDCHAR
STARTCHAR apl_intersect
ENCODING 427
SWIDTH 480 0
DWIDTH 10 0
BBX 10 20 0 -5
BITMAP
0E00
0E00
0E00
0E00
0E00
0E00
0E00
0E00
0E00
FFC0
0E00
0E00
0E00
0E00
0E00
0E00
0E00
0E00
0E00
0E00
ENDCHAR
STARTCHAR apl_lowerright
ENCODING 428
SWIDTH 480 0
DWIDTH 10 0
BBX 10 20 0 -5
BITMAP
0E00
0E00
0E00
0E00
0E00
0E00
0E00
0E00
0E00
FE00
0000
0000
0000
0000
0000
0000
0000
0000
0000
0000
ENDCHAR
STARTCHAR apl_upperright
ENCODING 429
SWIDTH 480 0
DWIDTH 10 0
BBX 10 20 0 -5
BITMAP
0000
0000
0000
0000
0000
0000
0000
0000
0000
FE00
0E00
0E00
0E00
0E00
0E00
0E00
0E00
0E00
0E00
0E00
ENDCHAR
STARTCHAR apl_rightjoin
ENCODING 430
SWIDTH 480 0
DWIDTH 10 0
BBX 10 20 0 -5
BITMAP
0E00
0E00
0E00
0E00
0E00
0E00
0E00
0E00
0E00
FE00
0E00
0E00
0E00
0E00
0E00
0E00
0E00
0E00
0E00
0E00
ENDCHAR
STARTCHAR apl_topjoin
ENCODING 431
SWIDTH 480 0
DWIDTH 10 0
BBX 10 20 0 -5
BITMAP
0000
0000
0000
0000
0000
0000
0000
0000
0000
FFC0
0E00
0E00
0E00
0E00
0E00
0E00
0E00
0E00
0E00
0E00
ENDCHAR
STARTCHAR 200
ENCODING 512
SWIDTH 480 0
DWIDTH 10 0
BBX 10 20 0 -5
BITMAP
0000
0000
0000
0000
0000
0000
0000
0000
0000
0000
0000
0000
0000
0000
0000
0000
0000
0000
0000
0000
ENDCHAR
STARTCHAR 201
ENCODING 513
SWIDTH 480 0
DWIDTH 10 0
BBX 10 20 0 -5
BITMAP
0000
0000
0000
0000
0000
0E00
1F00
3F80
7FC0
7FC0
3F80
1F00
0E00
0000
0000
0000
0000
0000
0000
0000
ENDCHAR
STARTCHAR 202
ENCODING 514
SWIDTH 480 0
DWIDTH 10 0
BBX 10 20 0 -5
BITMAP
5540
AA80
5540
AA80
5540
AA80
5540
AA80
5540
AA80
5540
AA80
5540
AA80
5540
AA80
5540
AA80
5540
AA80
ENDCHAR
STARTCHAR 203
ENCODING 515
SWIDTH 480 0
DWIDTH 10 0
BBX 10 20 0 -5
BITMAP
0000
0000
0000
0000
7700
7700
7700
7F00
7700
7700
7700
0000
1FC0
0700
0700
0700
0700
0700
0000
0000
ENDCHAR
STARTCHAR 204
ENCODING 516
SWIDTH 480 0
DWIDTH 10 0
BBX 10 20 0 -5
BITMAP
0000
0000
0000
0000
7E00
7000
7000
7C00
7000
7000
7000
0FC0
0E00
0E00
0F80
0E00
0E00
0E00
0000
0000
ENDCHAR
STARTCHAR 205
ENCODING 517
SWIDTH 480 0
DWIDTH 10 0
BBX 10 20 0 -5
BITMAP
0000
0000
0000
0000
3E00
7700
7000
7000
7700
3E00
0000
1F80
1DC0
1DC0
1F80
1F00
1F80
1DC0
0000
0000
ENDCHAR
STARTCHAR 206
ENCODING 518
SWIDTH 480 0
DWIDTH 10 0
BBX 10 20 0 -5
BITMAP
0000
0000
0000
0000
3800
3800
3800
3800
3800
3F00
0000
0FC0
0E00
0E00
0F80
0E00
0E00
0E00
0000
0000
ENDCHAR
STARTCHAR 207
ENCODING 519
SWIDTH 480 0
DWIDTH 10 0
BBX 10 20 0 -5
BITMAP
0000
0000
1F00
3B80
3B80
3B80
1F00
0000
0000
0000
0000
0000
0000
0000
0000
0000
0000
0000
0000
0000
ENDCHAR
STARTCHAR 208
ENCODING 520
SWIDTH 480 0
DWIDTH 10 0
BBX 10 20 0 -5
BITMAP
0000
0000
0000
0000
0000
0000
0000
0000
0E00
0E00
7FC0
0E00
0E00
0000
7FC0
0000
0000
0000
0000
0000
ENDCHAR
STARTCHAR 209
ENCODING 521
SWIDTH 480 0
DWIDTH 10 0
BBX 10 20 0 -5
BITMAP
0000
0000
0000
0000
7700
7F00
7F00
7F00
7F00
7700
0000
0E00
0E00
0E00
0E00
0E00
0E00
0FC0
0000
0000
ENDCHAR
STARTCHAR 20a
ENCODING 522
SWIDTH 480 0
DWIDTH 10 0
BBX 10 20 0 -5
BITMAP
0000
0000
0000
0000
7700
7700
7700
3E00
3E00
1C00
1C00
0000
1FC0
0700
0700
0700
0700
0700
0000
0000
ENDCHAR
STARTCHAR 20b
ENCODING 523
SWIDTH 480 0
DWIDTH 10 0
BBX 10 20 0 -5
BITMAP
0E00
0E00
0E00
0E00
0E00
0E00
0E00
0E00
0E00
FE00
0000
0000
0000
0000
0000
0000
0000
0000
0000
0000
ENDCHAR
STARTCHAR 20c
ENCODING 524
SWIDTH 480 0
DWIDTH 10 0
BBX 10 20 0 -5
BITMAP
0000
0000
0000
0000
0000
0000
0000
0000
0000
FE00
0E00
0E00
0E00
0E00
0E00
0E00
0E00
0E00
0E00
0E00
ENDCHAR
STARTCHAR 20d
ENCODING 525
SWIDTH 480 0
DWIDTH 10 0
BBX 10 20 0 -5
BITMAP
0000
0000
0000
0000
0000
0000
0000
0000
0000
0FC0
0E00
0E00
0E00
0E00
0E00
0E00
0E00
0E00
0E00
0E00
ENDCHAR
STARTCHAR 20e
ENCODING 526
SWIDTH 480 0
DWIDTH 10 0
BBX 10 20 0 -5
BITMAP
0E00
0E00
0E00
0E00
0E00
0E00
0E00
0E00
0E00
0FC0
0000
0000
0000
0000
0000
0000
0000
0000
0000
0000
ENDCHAR
STARTCHAR 20f
ENCODING 527
SWIDTH 480 0
DWIDTH 10 0
BBX 10 20 0 -5
BITMAP
0E00
0E00
0E00
0E00
0E00
0E00
0E00
0E00
0E00
FFC0
0E00
0E00
0E00
0E00
0E00
0E00
0E00
0E00
0E00
0E00
ENDCHAR
STARTCHAR 210
ENCODING 528
SWIDTH 480 0
DWIDTH 10 0
BBX 10 20 0 -5
BITMAP
0000
0000
0000
0000
FFC0
0000
0000
0000
0000
0000
0000
0000
0000
0000
0000
0000
0000
0000
0000
0000
ENDCHAR
STARTCHAR 211
ENCODING 529
SWIDTH 480 0
DWIDTH 10 0
BBX 10 20 0 -5
BITMAP
0000
0000
0000
0000
0000
0000
FFC0
0000
0000
0000
0000
0000
0000
0000
0000
0000
0000
0000
0000
0000
ENDCHAR
STARTCHAR 212
ENCODING 530
SWIDTH 480 0
DWIDTH 10 0
BBX 10 20 0 -5
BITMAP
0000
0000
0000
0000
0000
0000
0000
0000
0000
FFC0
0000
0000
0000
0000
0000
0000
0000
0000
0000
0000
ENDCHAR
STARTCHAR 213
ENCODING 531
SWIDTH 480 0
DWIDTH 10 0
BBX 10 20 0 -5
BITMAP
0000
0000
0000
0000
0000
0000
0000
0000
0000
0000
0000
0000
FFC0
0000
0000
0000
0000
0000
0000
0000
ENDCHAR
STARTCHAR 214
ENCODING 532
SWIDTH 480 0
DWIDTH 10 0
BBX 10 20 0 -5
BITMAP
0000
0000
0000
0000
0000
0000
0000
0000
0000
0000
0000
0000
0000
0000
0000
FFC0
0000
0000
0000
0000
ENDCHAR
STARTCHAR 215
ENCODING 533
SWIDTH 480 0
DWIDTH 10 0
BBX 10 20 0 -5
BITMAP
0E00
0E00
0E00
0E00
0E00
0E00
0E00
0E00
0E00
0FC0
0E00
0E00
0E00
0E00
0E00
0E00
0E00
0E00
0E00
0E00
ENDCHAR
STARTCHAR 216
ENCODING 534
SWIDTH 480 0
DWIDTH 10 0
BBX 10 20 0 -5
BITMAP
0E00
0E00
0E00
0E00
0E00
0E00
0E00
0E00
0E00
FE00
0E00
0E00
0E00
0E00
0E00
0E00
0E00
0E00
0E00
0E00
ENDCHAR
STARTCHAR 217
ENCODING 535
SWIDTH 480 0
DWIDTH 10 0
BBX 10 20 0 -5
BITMAP
0E00
0E00
0E00
0E00
0E00
0E00
0E00
0E00
0E00
FFC0
0000
0000
0000
0000
0000
0000
0000
0000
0000
0000
ENDCHAR
STARTCHAR 218
ENCODING 536
SWIDTH 480 0
DWIDTH 10 0
BBX 10 20 0 -5
BITMAP
0000
0000
0000
0000
0000
0000
0000
0000
0000
FFC0
0E00
0E00
0E00
0E00
0E00
0E00
0E00
0E00
0E00
0E00
ENDCHAR
STARTCHAR 219
ENCODING 537
SWIDTH 480 0
DWIDTH 10 0
BBX 10 20 0 -5
BITMAP
0E00
0E00
0E00
0E00
0E00
0E00
0E00
0E00
0E00
0E00
0E00
0E00
0E00
0E00
0E00
0E00
0E00
0E00
0E00
0E00
ENDCHAR
STARTCHAR 21a
ENCODING 538
SWIDTH 480 0
DWIDTH 10 0
BBX 10 20 0 -5
BITMAP
0000
0000
0000
0000
0000
01C0
0780
1E00
7800
1E00
0780
01C0
0000
0000
7FC0
0000
0000
0000
0000
0000
ENDCHAR
STARTCHAR 21b
ENCODING 539
SWIDTH 480 0
DWIDTH 10 0
BBX 10 20 0 -5
BITMAP
0000
0000
0000
0000
0000
7800
1E00
0780
01C0
0780
1E00
7800
0000
0000
7FC0
0000
0000
0000
0000
0000
ENDCHAR
STARTCHAR 21c
ENCODING 540
SWIDTH 480 0
DWIDTH 10 0
BBX 10 20 0 -5
BITMAP
0000
0000
0000
0000
0000
0000
0000
00C0
3FC0
7F80
1F80
1F80
1F80
1F80
3B80
0000
0000
0000
0000
0000
ENDCHAR
STARTCHAR 21d
ENCODING 541
SWIDTH 480 0
DWIDTH 10 0
BBX 10 20 0 -5
BITMAP
0000
0000
0000
0000
0000
0000
01C0
0380
7FC0
0700
0E00
7FC0
1C00
3800
0000
0000
0000
0000
0000
0000
ENDCHAR
STARTCHAR 21e
ENCODING 542
SWIDTH 480 0
DWIDTH 10 0
BBX 10 20 0 -5
BITMAP
0000
0000
0F80
1DC0
1DC0
1C00
1C00
1C00
7F00
1C00
1C00
1C00
7E00
7FC0
7BC0
0000
0000
0000
0000
0000
ENDCHAR
STARTCHAR 21f
ENCODING 543
SWIDTH 480 0
DWIDTH 10 0
BBX 10 20 0 -5
BITMAP
0000
0000
0000
0000
0000
0000
0000
0000
0E00
0E00
0000
0000
0000
0000
0000
0000
0000
0000
0000
0000
ENDCHAR
ENDFONT
